<?xml version="1.0" encoding="utf-8"?>
<!-- Generator: Adobe Illustrator 17.0.2, SVG Export Plug-In . SVG Version: 6.00 Build 0)  -->
<!DOCTYPE svg PUBLIC "-//W3C//DTD SVG 1.1//EN" "http://www.w3.org/Graphics/SVG/1.1/DTD/svg11.dtd">
<svg version="1.1" xmlns="http://www.w3.org/2000/svg" xmlns:xlink="http://www.w3.org/1999/xlink" x="0px" y="0px"
	 width="200.667px" height="223.333px" viewBox="0 0 200.667 223.333" enable-background="new 0 0 200.667 223.333"
	 xml:space="preserve">
<g id="Layer_2">
	<path fill="#FFFFFF" d="M138.558,131.609c0-0.431,0.019-0.736-0.003-1.039c-1.029-13.97-2.063-27.94-3.099-41.955
		c-0.326-0.072-0.58-0.165-0.84-0.18c-4.794-0.292-9.59-0.568-14.384-0.862c-5.022-0.308-10.043-0.637-15.066-0.945
		c-3.607-0.221-7.216-0.418-10.823-0.635c-2.192-0.132-4.382-0.283-6.574-0.421c-0.499-0.031-0.999-0.045-1.463-0.066
		c-0.38,0.442-0.25,0.904-0.24,1.333c0.069,3.068,0.159,6.136,0.233,9.204c0.156,6.448,0.307,12.896,0.461,19.343
		c0.164,6.848,0.327,13.696,0.496,20.544c0.034,1.378,0.089,2.756,0.145,4.134c0.278,6.853-2.542,12.264-8.144,16.324
		c-3.566,2.585-7.629,3.971-12.046,4.423c-4.607,0.472-9.136,0.084-13.589-1.129c-2.527-0.689-4.908-1.707-7.059-3.19
		c-2.939-2.025-5.033-4.65-5.896-8.093c-0.81-3.233-0.676-6.448,0.46-9.593c0.968-2.68,2.724-4.812,5.033-6.527
		c2.172-1.613,4.618-2.704,7.204-3.508c2.797-0.87,5.674-1.365,8.592-1.68c3.012-0.325,6.029-0.297,9.049-0.248
		c0.366,0.006,0.731,0.016,1.097,0.011c0.084-0.001,0.166-0.057,0.344-0.122c0.152-1.322-0.045-2.685-0.05-4.044
		c-0.005-1.423-0.043-2.847-0.068-4.27c-0.024-1.379-0.044-2.758-0.078-4.136c-0.034-1.378-0.093-2.756-0.126-4.134
		c-0.034-1.423-0.046-2.847-0.077-4.27c-0.03-1.378-0.071-2.757-0.108-4.135c-0.037-1.378-0.084-2.756-0.113-4.135
		c-0.031-1.423-0.04-2.847-0.069-4.27c-0.028-1.379-0.071-2.757-0.106-4.135c-0.035-1.378-0.074-2.757-0.104-4.135
		c-0.03-1.423-0.041-2.847-0.077-4.27c-0.035-1.378-0.097-2.756-0.134-4.134c-0.037-1.378-0.058-2.757-0.083-4.136
		c-0.026-1.423-0.04-2.847-0.074-4.27c-0.033-1.378-0.091-2.756-0.125-4.134c-0.035-1.379-0.054-2.757-0.08-4.136
		c-0.027-1.423-0.047-2.847-0.085-4.27c-0.036-1.378-0.1-2.756-0.135-4.134c-0.035-1.379-0.048-2.758-0.073-4.136
		c-0.027-1.423-0.067-2.846-0.083-4.269c-0.016-1.363-0.237-2.73-0.013-4.135c0.33-0.027,0.596-0.074,0.862-0.067
		c1.372,0.035,2.744,0.075,4.116,0.131c3.885,0.16,7.77,0.326,11.655,0.496c5.073,0.222,10.146,0.452,15.219,0.675
		c2.285,0.101,4.571,0.199,6.856,0.291c5.394,0.217,10.789,0.424,16.183,0.647c6.491,0.268,12.982,0.541,19.472,0.83
		c0.995,0.044,2.001,0.037,3.043,0.255c0.043,0.371,0.103,0.716,0.121,1.064c0.308,5.686,0.608,11.372,0.915,17.057
		c0.269,4.975,0.544,9.95,0.816,14.924c0.365,6.663,0.731,13.325,1.096,19.988c0.368,6.707,0.736,13.414,1.104,20.121
		c0.273,4.975,0.545,9.95,0.818,14.924c0.178,3.242,0.38,6.484,0.53,9.728c0.147,3.182-0.242,6.312-1.232,9.349
		c-2.554,7.834-7.924,12.882-16.1,14.945c-6.304,1.591-12.603,1.357-18.791-0.696c-3.113-1.033-5.926-2.57-8.233-4.897
		c-2.279-2.3-3.545-5.033-3.769-8.229c-0.16-2.277-0.109-4.528,0.526-6.747c0.824-2.88,2.433-5.247,4.805-7.136
		c2.195-1.748,4.714-2.884,7.402-3.687c3.923-1.172,7.954-1.65,12.046-1.686c2.562-0.022,5.125-0.034,7.676,0.281
		C137.944,131.633,138.171,131.609,138.558,131.609z M135.414,72.065c-0.15-1.893-0.296-3.744-0.442-5.594
		c-0.143-1.817-0.259-3.637-0.433-5.451c-0.177-1.84-0.166-3.702-0.548-5.589c-15.919-0.733-31.763-1.463-47.606-2.19
		c-0.264-0.012-0.529,0.011-0.871,0.019c-0.161,1.441,0.042,2.802,0.081,4.16c0.039,1.377,0.15,2.752,0.231,4.128
		c0.083,1.42,0.177,2.84,0.248,4.261c0.069,1.366,0.111,2.734,0.317,4.063c1.135,0.216,46.194,2.363,48.42,2.312
		C134.983,72.181,135.154,72.118,135.414,72.065z"/>
</g>
<g id="Layer_1">
	<g id="djDTD9_1_">
	</g>
	<circle fill="none" stroke="#FFFFFF" stroke-width="14" stroke-miterlimit="10" cx="101.497" cy="103.84" r="78.571"/>
</g>
</svg>
