<?xml version="1.0" encoding="utf-8"?>
<!-- Generator: Adobe Illustrator 17.0.2, SVG Export Plug-In . SVG Version: 6.00 Build 0)  -->
<!DOCTYPE svg PUBLIC "-//W3C//DTD SVG 1.1//EN" "http://www.w3.org/Graphics/SVG/1.1/DTD/svg11.dtd">
<svg version="1.1" xmlns="http://www.w3.org/2000/svg" xmlns:xlink="http://www.w3.org/1999/xlink" x="0px" y="0px"
	 width="200.667px" height="223.333px" viewBox="0 0 200.667 223.333" enable-background="new 0 0 200.667 223.333"
	 xml:space="preserve">
<g id="Layer_2">
	<path fill="#FFFFFF" d="M111.507,47.773c-0.026,0.357-0.07,0.657-0.067,0.956c0.057,5.429,0.126,10.858,0.178,16.287
		c0.036,3.791,0.052,7.582,0.072,11.372c0.041,7.633,0.07,15.266,0.122,22.899c0.07,10.245,0.157,20.49,0.238,30.734
		c0.041,5.174,0.053,10.348,0.143,15.52c0.038,2.205,0.063,4.405-0.172,6.599c-0.501,4.671-1.95,8.994-4.804,12.78
		c-3.164,4.197-7.369,6.912-12.324,8.492c-4.447,1.418-9.005,1.836-13.659,1.373c-4.434-0.441-8.654-1.577-12.621-3.612
		c-2.806-1.439-5.319-3.274-7.397-5.667c-3.016-3.473-4.568-7.5-4.426-12.112c0.116-3.759,1.229-7.258,3.102-10.501
		c1.15-1.992,2.835-3.487,4.764-4.712c2.361-1.499,4.949-2.455,7.65-3.11c3.555-0.862,7.171-1.126,10.822-1.082
		c4.271,0.051,8.474,0.589,12.62,1.602c0.342,0.084,0.7,0.103,1.13,0.163c0.03-0.455,0.083-0.854,0.079-1.252
		c-0.065-6.812-0.136-13.625-0.208-20.437c-0.047-4.405-0.09-8.811-0.149-13.216c-0.087-6.505-0.189-13.009-0.281-19.514
		c-0.115-8.144-0.246-16.287-0.335-24.431c-0.104-9.527-0.172-19.055-0.252-28.582c-0.005-0.61,0.022-1.22,0.033-1.812
		c0.212-0.105,0.343-0.225,0.478-0.229c3.633-0.113,7.267-0.468,10.899-0.109c1.369,0.135,2.763,0.321,4.071,0.727
		c10.858,3.373,21.203,7.887,30.761,14.099c4.002,2.601,7.822,5.441,11.167,8.875c2.34,2.402,4.349,5.043,5.729,8.119
		c2.08,4.636,2.674,9.433,1.401,14.39c-0.708,2.757-1.993,5.262-3.605,7.596c-3.067,4.442-6.891,8.109-11.436,11.012
		c-0.944,0.603-1.974,1.082-2.994,1.552c-0.404,0.186-0.889,0.256-1.339,0.264c-0.566,0.009-0.942-0.576-0.694-1.078
		c0.269-0.546,0.583-1.087,0.971-1.552c0.82-0.982,1.733-1.887,2.552-2.87c2.648-3.178,4.769-6.661,5.91-10.67
		c1.145-4.023,0.547-7.804-1.702-11.329c-1.309-2.051-2.967-3.792-4.824-5.34c-4.247-3.542-8.998-6.234-14.14-8.245
		c-4.745-1.856-9.67-3.01-14.708-3.712c-0.76-0.106-1.521-0.214-2.282-0.313C111.884,47.687,111.781,47.728,111.507,47.773z"/>
</g>
<g id="Layer_1">
	<g id="djDTD9_1_">
	</g>
	<circle fill="none" stroke="#FFFFFF" stroke-width="14" stroke-miterlimit="10" cx="101.497" cy="103.84" r="78.571"/>
</g>
</svg>
