<?xml version="1.0" encoding="utf-8"?>
<!-- Generator: Adobe Illustrator 17.1.0, SVG Export Plug-In . SVG Version: 6.00 Build 0)  -->
<!DOCTYPE svg PUBLIC "-//W3C//DTD SVG 1.1//EN" "http://www.w3.org/Graphics/SVG/1.1/DTD/svg11.dtd">
<svg version="1.1" id="Layer_1" xmlns="http://www.w3.org/2000/svg" xmlns:xlink="http://www.w3.org/1999/xlink" x="0px" y="0px"
	 viewBox="0 0 612 114.966" enable-background="new 0 0 612 114.966" xml:space="preserve">
<g>
	<path fill="#FFFFFF" d="M22.54,56.514v-16.6l-4.2-4.2h4.2h1.1h3.75h3.45h8.35c1.533,0.1,2.917,0.45,4.15,1.05
		c0.5,0.268,1,0.6,1.5,1c0.5,0.4,0.95,0.893,1.35,1.475c0.4,0.583,0.716,1.275,0.95,2.075c0.233,0.8,0.35,1.717,0.35,2.75v8.3
		c-0.034,0.734-0.133,1.467-0.3,2.2c-0.167,0.633-0.425,1.317-0.775,2.05c-0.35,0.734-0.842,1.4-1.475,2
		c0.733,0.634,1.341,1.45,1.825,2.45c0.483,1,0.725,2.267,0.725,3.8v12.5c-0.067,1.567-0.4,2.967-1,4.2
		c-0.267,0.534-0.6,1.05-1,1.55s-0.892,0.942-1.475,1.325c-0.583,0.383-1.275,0.692-2.075,0.925c-0.8,0.234-1.717,0.35-2.75,0.35
		h-8.35h-8.3h-4.2l4.2-4.2V56.514z M25.74,38.114v-0.8h-3.2v0.8H25.74z M25.94,83.514h-3.25v0.85h3.25V83.514z M26.29,39.565h0.8
		v-1.45h1.6v-0.8h-2h-0.4v0.4V39.565z M26.29,43.364h0.8v-3.2h-0.8V43.364z M26.29,47.215h0.8v-3.25h-0.8V47.215z M26.29,51.065h0.8
		v-1.45v-0.4v-1.4h-0.8v1.4v0.4V51.065z M26.29,54.864h0.8v-3.2h-0.8V54.864z M26.29,58.715h0.8v-3.25h-0.8V58.715z M26.29,62.565
		h0.8v-1.45v-0.4v-1.4h-0.8v1.4v0.4V62.565z M26.29,66.364h0.8v-3.2h-0.8V66.364z M26.29,70.215h0.8v-3.25h-0.8V70.215z
		 M26.29,74.014h0.8v-1.4v-0.4v-1.4h-0.8v1.4v0.4V74.014z M26.29,77.864h0.8v-3.2h-0.8V77.864z M26.29,81.715h0.8v-3.25h-0.8V81.715
		z M26.29,84.114h0.8v-1.8h-0.8V84.114z M29.14,58.264h-1.6v0.85h1.6V58.264z M28.99,83.514h-1.45v0.85h1.45V83.514z M29.34,84.364
		h2.55v-0.85h-2.55V84.364z M29.44,38.114h3.6v-0.8h-3.6V38.114z M29.64,58.264v0.85h2.85v-0.85H29.64z M39.19,44.065
		c0-1.066-0.217-1.875-0.65-2.425c-0.434-0.55-0.917-0.958-1.45-1.225c-0.6-0.3-1.284-0.483-2.05-0.55h-4.2v16.65h4.8
		c0.867-0.1,1.542-0.366,2.025-0.8c0.482-0.433,0.841-0.9,1.075-1.4c0.267-0.6,0.417-1.25,0.45-1.95V44.065z M35.04,81.565
		c1.033,0,1.833-0.216,2.4-0.65c0.566-0.433,0.983-0.917,1.25-1.45c0.3-0.6,0.466-1.3,0.5-2.1v-12.5
		c0-0.833-0.142-1.508-0.425-2.025c-0.283-0.517-0.625-0.925-1.025-1.225c-0.4-0.3-0.817-0.516-1.25-0.65
		c-0.434-0.133-0.784-0.216-1.05-0.25h-4.6v20.85H35.04z M34.79,83.514h-2.55v0.85h2.55V83.514z M35.84,58.264h-0.2h-1.05h-0.55
		h-0.85h-0.2v0.85h0.2h0.85h0.5h1.1l0.2-0.05V58.264z M33.79,38.165l0.25-0.05c0.966,0,1.982,0.117,3.05,0.35l0.2,0.05l0.2-0.8
		l-0.2-0.05c-0.6-0.133-1.175-0.233-1.725-0.3c-0.55-0.066-1.075-0.083-1.575-0.05h-0.2V38.165z M37.74,84.114l-0.15-0.8h-0.2
		c-0.167,0.067-0.333,0.1-0.5,0.1c-0.167,0-0.333,0.017-0.5,0.05c-0.167,0-0.342,0.009-0.525,0.025
		c-0.184,0.017-0.358,0.025-0.525,0.025h-0.2v0.8h0.2h0.9l0.2-0.05h0.2c0.167-0.033,0.316-0.05,0.45-0.05
		c0.133,0,0.283-0.017,0.45-0.05L37.74,84.114z M38.84,57.415l-0.15,0.1c-0.167,0.067-0.342,0.134-0.525,0.2
		c-0.184,0.067-0.375,0.134-0.575,0.2c-0.167,0.067-0.342,0.117-0.525,0.15c-0.184,0.034-0.375,0.083-0.575,0.15h-0.2l0.1,0.8h0.2
		c0.3-0.033,0.667-0.116,1.1-0.25l0.15-0.05l0.2-0.05c0.166-0.066,0.333-0.133,0.5-0.2c0.166-0.066,0.333-0.15,0.5-0.25l0.2-0.1
		L38.84,57.415z M40.59,83.215l-0.4-0.75l-0.15,0.1c-0.3,0.133-0.609,0.258-0.925,0.375c-0.317,0.117-0.659,0.208-1.025,0.275
		l-0.2,0.05l0.2,0.8l0.2-0.05c0.366-0.1,0.725-0.2,1.075-0.3s0.691-0.233,1.025-0.4L40.59,83.215z M37.99,38.715l0.15,0.05
		c0.5,0.134,0.983,0.334,1.45,0.6c0.233,0.134,0.458,0.259,0.675,0.375c0.217,0.117,0.408,0.259,0.575,0.425l0.15,0.1l0.55-0.6
		l-0.15-0.15c-0.367-0.266-0.783-0.533-1.25-0.8l-0.2-0.1l-0.15-0.1c-0.234-0.1-0.459-0.2-0.675-0.3
		c-0.217-0.1-0.442-0.183-0.675-0.25l-0.2-0.05L37.99,38.715z M40.69,58.764c-0.434-0.166-0.917-0.333-1.45-0.5l-0.2-0.05
		l-0.15,0.85h0.2c0.366,0.1,0.783,0.25,1.25,0.45l0.15,0.1l0.35-0.75L40.69,58.764z M41.14,55.264l-0.1,0.15
		c-0.5,0.667-1.05,1.217-1.65,1.65l-0.15,0.1l0.45,0.7l0.15-0.15c0.767-0.5,1.383-1.1,1.85-1.8l0.1-0.15L41.14,55.264z
		 M42.94,81.264l-0.65-0.5l-0.15,0.15c-0.3,0.434-0.783,0.867-1.45,1.3l-0.2,0.1l0.45,0.7l0.15-0.1c0.733-0.467,1.3-0.967,1.7-1.5
		L42.94,81.264z M43.54,61.915l-0.05-0.2c-0.3-0.9-0.934-1.7-1.9-2.4l-0.15-0.1l-0.45,0.7l0.15,0.1c0.767,0.5,1.283,1.15,1.55,1.95
		l0.1,0.2L43.54,61.915z M43.29,52.614l-0.75-0.25l-0.1,0.2c-0.267,0.833-0.583,1.55-0.95,2.15l-0.1,0.2l0.7,0.4l0.1-0.15
		c0.433-0.7,0.783-1.483,1.05-2.35L43.29,52.614z M42.14,40.215l-0.65,0.55l0.15,0.15c0.633,0.733,1.033,1.617,1.2,2.65l0.05,0.2
		l0.8-0.1l-0.05-0.2c-0.167-1.2-0.633-2.233-1.4-3.1L42.14,40.215z M43.79,79.415h-0.05v-0.75v-0.5v-0.2h-0.8v0.2v0.5v0.85
		c-0.067,0.134-0.125,0.268-0.175,0.4c-0.05,0.133-0.108,0.267-0.175,0.4l-0.15,0.2l0.75,0.4l0.1-0.15
		c0.066-0.166,0.133-0.325,0.2-0.475c0.066-0.15,0.133-0.308,0.2-0.475h0.05v-0.2L43.79,79.415z M43.79,50.465h-0.05v-1.6l-0.8-0.05
		v1.8c-0.067,0.367-0.15,0.734-0.25,1.1l-0.05,0.2l0.8,0.2l0.05-0.2c0.066-0.167,0.108-0.333,0.125-0.5
		c0.017-0.167,0.058-0.35,0.125-0.55v-0.2L43.79,50.465z M43.74,64.665v-1.85l-0.05-0.2l-0.8,0.05v0.2c0.033,0.3,0.05,0.6,0.05,0.9
		c0,0.3,0,0.6,0,0.9v1v0.2h0.8v-0.2V64.665z M43.74,44.465h-0.8v3.6l0.8,0.05V44.465z M43.74,69.665v-1.4v-0.4v-1.4h-0.8v1.4v0.4
		v1.4H43.74z M43.74,73.514v-3.2h-0.8v3.2H43.74z M42.94,74.114v3.25h0.8v-3.25H42.94z"/>
	<path fill="#FFFFFF" d="M63.639,81.565h12.5l4.2-9.2v9.2v4.15h-16.7h-0.85h-6.7h-0.8h-4.15l4.15-4.15v-41.75l-4.15-4.1h4.15h1.65
		h6.7l4.15,0.05l-4.15,4.15v16.65V81.565z M58.389,83.815v-0.8h-3.2v0.8H58.389z M58.439,38.114v-0.8h-3.2v0.8H58.439z
		 M59.039,38.915v1.75h0.85v-1.75H59.039z M59.039,41.264v3.2h0.85v-3.2H59.039z M59.039,45.014v3.2h0.85v-3.2H59.039z
		 M59.039,50.565v1.4h0.85v-1.4v-0.4v-1.4h-0.85v1.4V50.565z M59.039,52.565v3.15h0.85v-3.15H59.039z M59.039,56.315v3.15h0.85
		v-3.15H59.039z M59.039,61.815v1.4h0.85v-1.4v-0.4v-1.35h-0.85v1.35V61.815z M59.039,63.815v3.15h0.85v-3.15H59.039z
		 M59.039,67.565v3.15h0.85v-3.15H59.039z M59.039,73.114v1.35h0.85v-1.35v-0.4v-1.4h-0.85v1.4V73.114z M59.039,75.114v3.15h0.85
		v-3.15H59.039z M59.039,78.864v3.15h0.85v-3.15H59.039z M61.089,83.815v-0.8h-1.6v0.8H61.089z M60.439,37.315v0.8h3.2v-0.8H60.439z
		 M64.289,83.815v-0.8h-2.75v0.8H64.289z M67.489,83.815v-0.8h-2.75v0.8H67.489z M70.739,83.815v-0.8h-1.2h-0.4h-1.2v0.8h1.2h0.4
		H70.739z M73.939,83.815v-0.8h-2.75v0.8H73.939z M77.139,83.815v-0.8h-2.75v0.8H77.139z M77.589,83.014v0.8h1.6v-0.8H77.589z
		 M78.339,79.065v3.2h0.8v-3.2H78.339z"/>
	<path fill="#FFFFFF" d="M88.089,85.715h-4.15l5-5l6.7-39.9l-3.35-5.1h4.05h0.15h4.2h4h4.25l-3.65,3.65l6.85,41.25l5.15,5.1h-4.3
		h-8.3h-4.1l3.5-3.5l-1.5-9h-8.2l-1.5,8.95l3.55,3.55h-4.15h-1.3H88.089z M86.639,84.215h3.2v-0.85h-3.2V84.215z M90.889,79.665
		l-0.5,3.2l0.8,0.15l0.55-3.2L90.889,79.665z M93.689,83.364h-3.2v0.85h3.2V83.364z M91.539,75.864l-0.55,3.2l0.85,0.15l0.55-3.2
		L91.539,75.864z M92.239,71.715l-0.5,3.2l0.8,0.15l0.55-3.2L92.239,71.715z M92.889,67.965l-0.5,3.15l0.8,0.15l0.55-3.2
		L92.889,67.965z M93.639,63.764l-0.55,3.2l0.8,0.15l0.55-3.2L93.639,63.764z M94.289,60.014l-0.55,3.15l0.8,0.15l0.55-3.2
		L94.289,60.014z M97.239,71.465v-0.85h-3.2v0.85H97.239z M94.989,55.815l-0.55,3.2l0.8,0.15l0.55-3.2L94.989,55.815z
		 M98.489,48.614l-3.4,20.45h6.8L98.489,48.614z M95.639,52.065l-0.55,3.15l0.8,0.15l0.55-3.2L95.639,52.065z M96.339,47.915
		l-0.55,3.15l0.8,0.15l0.55-3.2L96.339,47.915z M96.989,44.114l-0.55,3.15l0.8,0.15l0.55-3.15L96.989,44.114z M96.589,37.514v0.8
		h3.2v-0.8H96.589z M97.939,43.264l0.55-3.2l-0.8-0.1l-0.55,3.15L97.939,43.264z M101.089,71.465v-0.85h-3.2v0.85H101.089z
		 M100.389,37.514v0.8h3.25v-0.8H100.389z M101.489,43.264l0.8-0.15l-0.55-3.15l-0.8,0.15L101.489,43.264z M102.489,44.114
		l-0.8,0.15l0.55,3.15l0.8-0.15L102.489,44.114z M104.939,71.465v-0.85h-3.2v0.85H104.939z M102.889,51.215l0.8-0.15l-0.55-3.15
		l-0.8,0.1L102.889,51.215z M104.439,55.215l-0.55-3.15l-0.85,0.15l0.6,3.15L104.439,55.215z M105.089,59.014l-0.55-3.2l-0.8,0.15
		l0.55,3.2L105.089,59.014z M105.839,63.165l-0.6-3.2l-0.8,0.15l0.55,3.2L105.839,63.165z M106.489,66.965l-0.55-3.2l-0.85,0.15
		l0.6,3.2L106.489,66.965z M108.639,84.215v-0.85h-3.25v0.85H108.639z M107.189,71.114l-0.55-3.2l-0.8,0.15l0.55,3.2L107.189,71.114
		z M107.889,74.915l-0.55-3.2l-0.85,0.15l0.55,3.15L107.889,74.915z M108.589,79.065l-0.55-3.2l-0.8,0.15l0.55,3.15L108.589,79.065z
		 M109.239,82.815l-0.55-3.15l-0.8,0.15l0.55,3.15L109.239,82.815z M112.489,83.364h-3.25v0.85h3.25V83.364z"/>
	<path fill="#FFFFFF" d="M137.639,85.715c-2.3,0-4.467-0.658-6.5-1.975c-2.034-1.316-3.809-3.1-5.325-5.35
		c-1.517-2.25-2.708-4.891-3.575-7.925c-0.867-3.033-1.3-6.283-1.3-9.75c0-3.433,0.433-6.675,1.3-9.725
		c0.867-3.05,2.058-5.7,3.575-7.95c1.517-2.25,3.292-4.033,5.325-5.35c2.033-1.316,4.2-1.975,6.5-1.975
		c2.366,0,4.583,0.684,6.65,2.05c2.066,1.367,3.866,3.25,5.4,5.65c0.133,0.2,0.258,0.4,0.375,0.6c0.116,0.2,0.225,0.4,0.325,0.6
		c0.2,0.467,0.3,0.967,0.3,1.5c0,0.8-0.2,1.5-0.6,2.1c-0.367,0.634-0.858,1.134-1.475,1.5c-0.617,0.367-1.309,0.55-2.075,0.55
		c-1.167,0-2.15-0.4-2.95-1.2c-0.8-0.8-1.2-1.783-1.2-2.95c0-0.8,0.208-1.525,0.625-2.175c0.416-0.65,0.958-1.158,1.625-1.525
		c-0.768-0.8-1.567-1.425-2.4-1.875c-0.833-0.45-1.717-0.675-2.65-0.675c-1.467,0-2.833,0.55-4.1,1.65
		c-1.267,1.1-2.383,2.592-3.35,4.475c-0.967,1.884-1.725,4.092-2.275,6.625c-0.55,2.534-0.825,5.234-0.825,8.1
		c0,2.867,0.275,5.567,0.825,8.1c0.55,2.534,1.308,4.742,2.275,6.625c0.966,1.883,2.083,3.375,3.35,4.475
		c1.267,1.1,2.633,1.65,4.1,1.65c1.2,0,2.341-0.367,3.425-1.1c1.083-0.733,2.058-1.767,2.925-3.1c-0.833-0.3-1.517-0.808-2.05-1.525
		c-0.534-0.716-0.8-1.558-0.8-2.525c0-1.167,0.417-2.167,1.25-3c0.833-0.833,1.85-1.25,3.05-1.25c1.166,0,2.166,0.417,3,1.25
		c0.833,0.833,1.25,1.833,1.25,3c0,0.7-0.117,1.3-0.35,1.8c-0.034,0.034-0.05,0.059-0.05,0.075c0,0.017-0.017,0.042-0.05,0.075
		c-1.5,3.167-3.425,5.7-5.775,7.6S140.471,85.715,137.639,85.715z M124.539,61.665h0.8v-0.2v-2.85v-0.2l-0.8-0.05v0.2
		c-0.034,1.034-0.034,2,0,2.9V61.665z M124.539,57.715l0.85,0.05v-0.2c0-0.167,0.008-0.35,0.025-0.55
		c0.016-0.2,0.042-0.416,0.075-0.65v-0.2v-0.2c0.033-0.167,0.05-0.417,0.05-0.75c0.033-0.1,0.05-0.267,0.05-0.5l0.05-0.2l-0.85-0.05
		v0.2c0,0.067-0.009,0.142-0.025,0.225c-0.018,0.084-0.025,0.159-0.025,0.225c-0.033,0.167-0.05,0.333-0.05,0.5
		c0,0.167-0.017,0.333-0.05,0.5c0,0.267-0.009,0.517-0.025,0.75c-0.017,0.234-0.025,0.45-0.025,0.65L124.539,57.715z
		 M124.838,65.614l0.85-0.1l-0.05-0.2c-0.067-0.466-0.117-0.941-0.15-1.425c-0.033-0.482-0.067-0.958-0.1-1.425v-0.2l-0.85,0.05
		l0.05,0.2c0,0.467,0.025,0.95,0.075,1.45c0.05,0.5,0.108,0.983,0.175,1.45V65.614z M124.838,53.815l0.85,0.1l0.05-0.3
		c0.066-0.466,0.125-0.917,0.175-1.35c0.05-0.433,0.108-0.883,0.175-1.35l0.05-0.2l-0.8-0.15l-0.05,0.2
		c-0.1,0.467-0.175,0.925-0.225,1.375c-0.05,0.45-0.108,0.909-0.175,1.375L124.838,53.815z M125.639,69.465l0.8-0.2l-0.05-0.2
		c-0.067-0.167-0.117-0.35-0.15-0.55c-0.033-0.2-0.083-0.383-0.15-0.55c0-0.1-0.017-0.183-0.05-0.25
		c0-0.066-0.009-0.125-0.025-0.175c-0.018-0.05-0.025-0.108-0.025-0.175c-0.033-0.167-0.067-0.341-0.1-0.525
		c-0.034-0.183-0.067-0.358-0.1-0.525v-0.2l-0.85,0.15l0.05,0.2c0.033,0.167,0.058,0.342,0.075,0.525
		c0.017,0.184,0.058,0.375,0.125,0.575v0.1l0.05,0.2l0.05,0.2v0.1c0.066,0.167,0.116,0.35,0.15,0.55
		c0.033,0.2,0.083,0.384,0.15,0.55L125.639,69.465z M125.488,49.915l0.8,0.2l0.05-0.2c0.267-0.967,0.566-1.85,0.9-2.65l0.1-0.15
		l-0.75-0.35l-0.1,0.2c-0.167,0.434-0.333,0.884-0.5,1.35c-0.167,0.467-0.317,0.934-0.45,1.4L125.488,49.915z M126.889,73.215
		l0.75-0.3l-0.05-0.2c-0.333-0.7-0.65-1.583-0.95-2.65l-0.05-0.2l-0.8,0.25l0.05,0.2c0.167,0.534,0.333,1.025,0.5,1.475
		c0.167,0.45,0.333,0.875,0.5,1.275L126.889,73.215z M126.889,46.165l0.7,0.4l0.1-0.2c0.1-0.2,0.208-0.4,0.325-0.6
		c0.116-0.2,0.241-0.4,0.375-0.6c0.133-0.2,0.258-0.4,0.375-0.6c0.116-0.2,0.258-0.383,0.425-0.55l0.1-0.15l-0.65-0.5l-0.1,0.15
		c-0.167,0.167-0.3,0.342-0.4,0.525c-0.1,0.184-0.217,0.358-0.35,0.525l-0.1,0.15l-0.1,0.15c-0.133,0.2-0.25,0.392-0.35,0.575
		c-0.1,0.184-0.2,0.358-0.3,0.525L126.889,46.165z M127.238,74.014c0.233,0.467,0.458,0.917,0.675,1.35
		c0.216,0.434,0.441,0.85,0.675,1.25l0.1,0.15l0.7-0.4l-0.1-0.2c-0.5-0.8-0.934-1.633-1.3-2.5l-0.1-0.15l-0.75,0.3L127.238,74.014z
		 M129.039,42.815l0.65,0.55l0.1-0.15c0.333-0.366,0.667-0.708,1-1.025c0.333-0.316,0.683-0.608,1.05-0.875l0.15-0.15l-0.5-0.65
		l-0.15,0.15c-0.4,0.3-0.775,0.617-1.125,0.95c-0.35,0.333-0.692,0.684-1.025,1.05L129.039,42.815z M129.738,76.864l-0.7,0.45
		l0.1,0.15c0.033,0.067,0.066,0.125,0.1,0.175c0.033,0.05,0.066,0.109,0.1,0.175c0.1,0.167,0.2,0.317,0.3,0.45
		c0.1,0.134,0.2,0.268,0.3,0.4c0.133,0.167,0.258,0.325,0.375,0.475c0.116,0.15,0.241,0.309,0.375,0.475
		c0.033,0.067,0.058,0.109,0.075,0.125c0.016,0.017,0.041,0.059,0.075,0.125l0.1,0.15l0.65-0.5l-0.1-0.2
		c-0.067-0.066-0.117-0.133-0.15-0.2l-0.6-0.75l-0.1-0.15l-0.15-0.2v0.05c-0.067-0.133-0.142-0.258-0.225-0.375
		c-0.084-0.117-0.159-0.225-0.225-0.325c-0.034-0.066-0.067-0.125-0.1-0.175c-0.034-0.05-0.067-0.108-0.1-0.175L129.738,76.864z
		 M131.988,79.965l-0.6,0.55l0.1,0.15c0.133,0.133,0.233,0.25,0.3,0.35c0.1,0.134,0.208,0.259,0.325,0.375
		c0.117,0.117,0.225,0.242,0.325,0.375c0.167,0.167,0.341,0.334,0.525,0.5c0.183,0.167,0.392,0.334,0.625,0.5l0.15,0.1l0.5-0.65
		l-0.2-0.1c-0.2-0.167-0.367-0.316-0.5-0.45c-0.134-0.133-0.284-0.283-0.45-0.45v-0.05c-0.133-0.1-0.25-0.208-0.35-0.325
		c-0.1-0.116-0.2-0.241-0.3-0.375c-0.067-0.066-0.117-0.125-0.15-0.175c-0.034-0.05-0.083-0.108-0.15-0.175L131.988,79.965z
		 M132.039,40.165l0.45,0.65l0.15-0.1c0.4-0.267,0.8-0.508,1.2-0.725c0.4-0.216,0.816-0.425,1.25-0.625l0.2-0.05l-0.35-0.75
		l-0.15,0.05c-0.467,0.2-0.917,0.417-1.35,0.65c-0.434,0.234-0.85,0.484-1.25,0.75L132.039,40.165z M134.338,83.264l0.15,0.1
		c0.9,0.467,1.85,0.784,2.85,0.95h0.2l0.1-0.8l-0.2-0.05c-0.8-0.1-1.65-0.383-2.55-0.85l-0.15-0.1L134.338,83.264z M135.588,38.315
		l0.25,0.8l0.2-0.1c0.233-0.066,0.458-0.125,0.675-0.175c0.216-0.05,0.441-0.108,0.675-0.175c0.232-0.066,0.458-0.108,0.675-0.125
		c0.216-0.017,0.441-0.042,0.675-0.075h0.2l-0.05-0.8h-0.2c-0.2,0-0.409,0.017-0.625,0.05c-0.217,0.034-0.442,0.067-0.675,0.1
		l-0.2,0.05l-0.15,0.05c-0.234,0.067-0.45,0.125-0.65,0.175c-0.2,0.05-0.4,0.108-0.6,0.175L135.588,38.315z M138.238,83.565v0.8h0.2
		c0.2,0,0.408-0.008,0.625-0.025c0.216-0.017,0.441-0.042,0.675-0.075l0.2-0.05l0.2-0.05c0.366-0.1,0.783-0.233,1.25-0.4l0.15-0.1
		l-0.3-0.75l-0.2,0.1c-0.2,0.067-0.409,0.134-0.625,0.2c-0.217,0.067-0.442,0.134-0.675,0.2c-0.4,0.1-0.833,0.15-1.3,0.15H138.238z
		 M139.539,38.465h0.2c0.867,0,1.733,0.2,2.6,0.6l0.2,0.1l0.3-0.75l-0.15-0.1c-0.934-0.4-1.917-0.633-2.95-0.7h-0.2V38.465z
		 M141.789,82.665l0.4,0.7l0.15-0.1c0.8-0.466,1.583-1.066,2.35-1.8l0.15-0.15l-0.6-0.6l-0.1,0.15
		c-0.4,0.367-0.775,0.684-1.125,0.95c-0.35,0.267-0.709,0.517-1.075,0.75L141.789,82.665z M143.039,39.415l0.2,0.1
		c0.7,0.434,1.433,1,2.2,1.7l0.15,0.15l0.55-0.6l-0.15-0.15c-0.667-0.667-1.45-1.266-2.35-1.8l-0.15-0.1L143.039,39.415z
		 M144.639,46.915l0.8-0.1v-0.2c-0.067-0.167-0.075-0.358-0.025-0.575c0.05-0.217,0.108-0.425,0.175-0.625l0.05-0.15l-0.75-0.35
		l-0.05,0.2c-0.233,0.5-0.317,1.034-0.25,1.6L144.639,46.915z M146.188,74.364l-0.15-0.15c-0.333-0.333-0.517-0.683-0.55-1.05v-0.2
		l-0.85,0.15l0.05,0.2c0.033,0.5,0.283,1,0.75,1.5l0.15,0.1L146.188,74.364z M144.688,80.264l0.6,0.6l0.15-0.15
		c0.366-0.4,0.708-0.775,1.025-1.125c0.316-0.35,0.608-0.708,0.875-1.075l0.15-0.15l-0.65-0.5l-0.15,0.15
		c-0.267,0.334-0.55,0.675-0.85,1.025c-0.3,0.35-0.633,0.708-1,1.075L144.688,80.264z M144.738,72.264l0.8,0.3l0.05-0.2
		c0.133-0.3,0.358-0.55,0.675-0.75c0.316-0.2,0.658-0.3,1.025-0.3h0.2h0.2l0.05-0.8h-0.15c-0.067-0.033-0.167-0.05-0.3-0.05
		c-0.567,0-1.075,0.159-1.525,0.475c-0.45,0.317-0.759,0.708-0.925,1.175L144.738,72.264z M148.389,48.514l-0.4-0.7l-0.2,0.1
		c-0.167,0.1-0.367,0.15-0.6,0.15c-0.567,0-1.05-0.233-1.45-0.7l-0.1-0.15l-0.65,0.5l0.15,0.15c0.333,0.434,0.783,0.75,1.35,0.95
		c0.267,0.067,0.483,0.1,0.65,0.1c0.4,0,0.75-0.1,1.05-0.3L148.389,48.514z M146.588,41.215l-0.6,0.55l0.15,0.15
		c0.166,0.167,0.316,0.35,0.45,0.55c0.133,0.2,0.267,0.384,0.4,0.55c0.267,0.334,0.517,0.717,0.75,1.15l0.1,0.2l0.75-0.4l-0.1-0.2
		c-0.133-0.166-0.25-0.341-0.35-0.525c-0.1-0.183-0.217-0.358-0.35-0.525l-0.15-0.2l-0.1-0.15c-0.134-0.167-0.259-0.333-0.375-0.5
		c-0.117-0.167-0.259-0.333-0.425-0.5L146.588,41.215z M147.988,76.014c-0.1,0.167-0.208,0.35-0.325,0.55
		c-0.117,0.2-0.242,0.417-0.375,0.65l-0.1,0.15l0.65,0.45l0.15-0.15c0.133-0.2,0.25-0.392,0.35-0.575c0.1-0.183,0.2-0.358,0.3-0.525
		l0.1-0.2l0.1-0.15c0.1-0.2,0.191-0.4,0.275-0.6c0.083-0.2,0.158-0.4,0.225-0.6l0.05-0.2l-0.75-0.25l-0.1,0.2
		c-0.067,0.2-0.142,0.4-0.225,0.6C148.23,75.565,148.121,75.782,147.988,76.014z M148.088,71.465l0.15,0.15
		c0.167,0.134,0.292,0.284,0.375,0.45c0.083,0.167,0.158,0.333,0.225,0.5c0.033,0.133,0.058,0.242,0.075,0.325
		c0.016,0.084,0.025,0.159,0.025,0.225v0.05c-0.034,0.1-0.05,0.2-0.05,0.3s-0.018,0.217-0.05,0.35l-0.05,0.15l0.8,0.2l0.05-0.2
		c0.033-0.167,0.058-0.308,0.075-0.425c0.017-0.117,0.025-0.225,0.025-0.325c0.033-0.167,0.033-0.333,0-0.5
		c-0.033-0.167-0.067-0.283-0.1-0.35c-0.2-0.633-0.5-1.1-0.9-1.4l-0.15-0.15L148.088,71.465z M148.889,44.514l-0.75,0.35l0.1,0.2
		c0.1,0.2,0.191,0.409,0.275,0.625c0.083,0.217,0.158,0.409,0.225,0.575c0.033,0.334-0.067,0.684-0.3,1.05l-0.1,0.2l0.65,0.45
		l0.1-0.15c0.133-0.2,0.258-0.441,0.375-0.725c0.117-0.283,0.142-0.591,0.075-0.925v-0.05c-0.067-0.266-0.142-0.5-0.225-0.7
		c-0.083-0.2-0.192-0.417-0.325-0.65L148.889,44.514z"/>
	<path fill="#FFFFFF" d="M188.638,35.715l-16.55,25h-0.1l16.65,25h-8.35h-4.2l2.5-2.55l-10.8-16.25v14.7l4.1,4.1h-4.1h-8.4h-4.15
		l4.1-4.15h0.05v-41.7l-4.15-4.15h4.15h8.4h4.1l-4.1,4.15v20.85h0.15l14.8-22.4l-2.5-2.6h4.1h0.1H188.638z M162.438,37.614v-0.8
		h-3.25v0.8H162.438z M162.438,84.315v-0.8h-3.25v0.8H162.438z M163.988,39.965v-1.75h-0.85v1.75H163.988z M163.988,43.764v-3.2
		h-0.85v3.2H163.988z M163.988,47.514v-3.2h-0.85v3.2H163.988z M163.988,49.465v-1.4h-0.85v1.4v0.4v1.35h0.85v-1.35V49.465z
		 M163.988,55.014v-3.15h-0.85v3.15H163.988z M163.988,58.764v-3.15h-0.85v3.15H163.988z M163.988,60.715v-1.4h-0.85v1.4v0.4v1.4
		h0.85v-1.4V60.715z M163.988,66.264v-3.15h-0.85v3.15H163.988z M163.988,70.014v-3.15h-0.85v3.15H163.988z M163.988,71.965v-1.35
		h-0.85v1.35v0.4v1.4h0.85v-1.4V71.965z M163.988,77.514v-3.15h-0.85v3.15H163.988z M163.988,81.264v-3.15h-0.85v3.15H163.988z
		 M163.988,83.614v-1.75h-0.85v1.75H163.988z M167.488,84.315v-0.8h-3.25v0.8H167.488z M164.338,36.815v0.8h3.2v-0.8H164.338z
		 M165.488,66.864l-1.1,1.6l0.7,0.45l1.05-1.6L165.488,66.864z M166.538,66.715l1.9-2.85l-0.7-0.45l-1.9,2.85L166.538,66.715z
		 M170.038,59.915l-1.9,2.9l0.7,0.45l1.9-2.9L170.038,59.915z M168.738,63.815l1.1,1.55l0.7-0.45l-1.1-1.6L168.738,63.815z
		 M172.888,68.315l-1.95-2.85l-0.7,0.5l1.95,2.8L172.888,68.315z M171.988,58.514l1.05-1.6l-0.7-0.45l-1.05,1.6l-0.85,1.25l0.7,0.45
		L171.988,58.514z M175.238,71.715l-1.95-2.85l-0.7,0.5l1.95,2.8L175.238,71.715z M174.638,53.014l-1.9,2.85l0.65,0.45l1.95-2.85
		L174.638,53.014z M176.488,73.514l-0.85-1.25l-0.7,0.5l0.85,1.25l0.15,0.2l0.1,0.1l0.85,1.25l0.7-0.45l-0.9-1.25l-0.15-0.25
		L176.488,73.514z M176.938,49.514l-1.9,2.9l0.65,0.45l1.9-2.9L176.938,49.514z M178.138,47.665l-0.85,1.25l0.7,0.5l1.05-1.65
		l0.85-1.25l-0.65-0.45L178.138,47.665z M179.938,78.514l-1.95-2.85l-0.7,0.5l1.95,2.8L179.938,78.514z M182.288,84.315v-0.8h-3.2
		v0.8H182.288z M181.488,42.614l-1.9,2.85l0.7,0.45l1.9-2.85L181.488,42.614z M182.288,81.915l-1.95-2.85l-0.7,0.5l1.95,2.8
		L182.288,81.915z M183.788,39.114l-1.9,2.9l0.7,0.45l1.9-2.9L183.788,39.114z M182.638,37.614h2.15l-0.6,0.9l0.7,0.5l0.85-1.35
		l0.1-0.1l0.05-0.35v-0.4h-3.25V37.614z M183.688,83.514v0.8h2.75v-0.2h0.3v-0.4h-0.3v-0.2H183.688z"/>
	<path fill="#FFFFFF" d="M219.537,81.565h12.5l4.2-9.2v9.2v4.15h-16.7h-0.85h-6.7h-0.8h-4.15l4.15-4.15v-41.75l-4.15-4.1h4.15h1.65
		h6.7l4.15,0.05l-4.15,4.15v16.65V81.565z M214.287,83.815v-0.8h-3.2v0.8H214.287z M214.337,38.114v-0.8h-3.2v0.8H214.337z
		 M214.937,38.915v1.75h0.85v-1.75H214.937z M214.937,41.264v3.2h0.85v-3.2H214.937z M214.937,45.014v3.2h0.85v-3.2H214.937z
		 M214.937,50.565v1.4h0.85v-1.4v-0.4v-1.4h-0.85v1.4V50.565z M214.937,52.565v3.15h0.85v-3.15H214.937z M214.937,56.315v3.15h0.85
		v-3.15H214.937z M214.937,61.815v1.4h0.85v-1.4v-0.4v-1.35h-0.85v1.35V61.815z M214.937,63.815v3.15h0.85v-3.15H214.937z
		 M214.937,67.565v3.15h0.85v-3.15H214.937z M214.937,73.114v1.35h0.85v-1.35v-0.4v-1.4h-0.85v1.4V73.114z M214.937,75.114v3.15
		h0.85v-3.15H214.937z M214.937,78.864v3.15h0.85v-3.15H214.937z M216.987,83.815v-0.8h-1.6v0.8H216.987z M216.337,37.315v0.8h3.2
		v-0.8H216.337z M220.187,83.815v-0.8h-2.75v0.8H220.187z M223.387,83.815v-0.8h-2.75v0.8H223.387z M226.637,83.815v-0.8h-1.2h-0.4
		h-1.2v0.8h1.2h0.4H226.637z M229.837,83.815v-0.8h-2.75v0.8H229.837z M233.037,83.815v-0.8h-2.75v0.8H233.037z M233.487,83.014v0.8
		h1.6v-0.8H233.487z M234.237,79.065v3.2h0.8v-3.2H234.237z"/>
	<path fill="#FFFFFF" d="M256.486,35.715c2.3,0,4.466,0.659,6.5,1.975c2.033,1.317,3.8,3.1,5.3,5.35s2.691,4.9,3.575,7.95
		c0.883,3.05,1.325,6.292,1.325,9.725c0,3.467-0.442,6.717-1.325,9.75c-0.883,3.034-2.075,5.675-3.575,7.925s-3.268,4.034-5.3,5.35
		c-2.034,1.317-4.2,1.975-6.5,1.975c-2.3,0-4.458-0.658-6.475-1.975c-2.017-1.316-3.783-3.1-5.3-5.35
		c-1.517-2.25-2.708-4.891-3.575-7.925c-0.867-3.033-1.3-6.283-1.3-9.75c0-3.433,0.433-6.675,1.3-9.725
		c0.867-3.05,2.058-5.7,3.575-7.95c1.517-2.25,3.283-4.033,5.3-5.35C252.028,36.373,254.187,35.715,256.486,35.715z M243.586,60.264
		h0.85v-0.2c0-0.433,0.008-0.875,0.025-1.325c0.017-0.45,0.042-0.908,0.075-1.375v-0.2l-0.8-0.05v0.15c-0.1,1-0.15,1.934-0.15,2.8
		V60.264z M243.736,64.065l0.8-0.05v-0.2c-0.034-0.466-0.059-0.925-0.075-1.375c-0.017-0.45-0.025-0.908-0.025-1.375v-0.2h-0.85v0.2
		c0,0.934,0.05,1.867,0.15,2.8V64.065z M243.787,56.465l0.85,0.1v-0.2c0.033-0.233,0.058-0.466,0.075-0.7
		c0.017-0.233,0.042-0.45,0.075-0.65c0.066-0.266,0.107-0.508,0.125-0.725c0.016-0.217,0.058-0.425,0.125-0.625v-0.2l-0.8-0.15
		l-0.05,0.2c-0.034,0.167-0.059,0.342-0.075,0.525c-0.017,0.184-0.059,0.408-0.125,0.675v0.2l-0.05,0.2
		c-0.034,0.167-0.059,0.35-0.075,0.55c-0.017,0.2-0.042,0.4-0.075,0.6V56.465z M244.236,67.815l0.8-0.15v-0.2
		c-0.067-0.167-0.109-0.366-0.125-0.6c-0.018-0.233-0.059-0.483-0.125-0.75c-0.067-0.4-0.117-0.85-0.15-1.35v-0.2l-0.85,0.1v0.2
		l0.15,1.2l0.05,0.2v0.2c0.066,0.233,0.108,0.442,0.125,0.625c0.017,0.184,0.042,0.358,0.075,0.525L244.236,67.815z M244.336,52.715
		l0.8,0.2l0.05-0.2c0.1-0.466,0.2-0.917,0.3-1.35c0.1-0.433,0.216-0.866,0.35-1.3l0.1-0.2l-0.8-0.25l-0.05,0.2
		c-0.167,0.467-0.3,0.917-0.4,1.35c-0.1,0.434-0.2,0.883-0.3,1.35L244.336,52.715z M245.136,71.514l0.8-0.25l-0.05-0.15
		c-0.167-0.433-0.3-0.866-0.4-1.3c-0.1-0.433-0.2-0.883-0.3-1.35l-0.05-0.2l-0.8,0.15l0.05,0.2c0.1,0.467,0.208,0.925,0.325,1.375
		c0.116,0.45,0.241,0.892,0.375,1.325L245.136,71.514z M245.287,49.065l0.8,0.25l0.05-0.2c0.167-0.466,0.333-0.908,0.5-1.325
		c0.167-0.417,0.333-0.825,0.5-1.225l0.05-0.15l-0.75-0.35l-0.05,0.2c-0.2,0.4-0.375,0.817-0.525,1.25
		c-0.15,0.434-0.309,0.884-0.475,1.35L245.287,49.065z M246.437,75.114l0.8-0.35l-0.1-0.2c-0.167-0.4-0.333-0.808-0.5-1.225
		c-0.167-0.417-0.333-0.858-0.5-1.325l-0.05-0.15l-0.8,0.25l0.1,0.2c0.3,0.867,0.633,1.733,1,2.6L246.437,75.114z M246.736,45.514
		l0.7,0.35l0.1-0.2c0.133-0.233,0.25-0.441,0.35-0.625c0.1-0.183,0.2-0.358,0.3-0.525v-0.05c0.1-0.2,0.208-0.392,0.325-0.575
		c0.117-0.183,0.242-0.375,0.375-0.575l0.1-0.15l-0.7-0.45l-0.1,0.15c-0.1,0.167-0.2,0.342-0.3,0.525
		c-0.1,0.184-0.217,0.359-0.35,0.525l-0.1,0.15l-0.1,0.2h0.05c-0.2,0.3-0.4,0.65-0.6,1.05L246.736,45.514z M248.287,78.415l0.7-0.45
		l-0.1-0.15c-0.267-0.4-0.5-0.783-0.7-1.15c-0.1-0.167-0.2-0.35-0.3-0.55c-0.1-0.2-0.217-0.417-0.35-0.65l-0.1-0.2l-0.7,0.4
		l0.05,0.15c0.2,0.4,0.4,0.75,0.6,1.05h-0.05l0.1,0.2h0.05l0.05,0.15c0.133,0.2,0.25,0.384,0.35,0.55c0.1,0.167,0.2,0.334,0.3,0.5
		L248.287,78.415z M264.836,60.764c0-2.833-0.217-5.508-0.65-8.025c-0.434-2.516-1.034-4.7-1.8-6.55
		c-0.767-1.85-1.658-3.316-2.675-4.4c-1.017-1.083-2.092-1.625-3.225-1.625c-1.167,0-2.25,0.542-3.25,1.625
		c-1,1.083-1.875,2.55-2.625,4.4s-1.342,4.034-1.775,6.55c-0.434,2.517-0.65,5.192-0.65,8.025c0,2.867,0.216,5.55,0.65,8.05
		c0.433,2.5,1.025,4.684,1.775,6.55c0.75,1.867,1.625,3.342,2.625,4.425c1,1.083,2.083,1.625,3.25,1.625
		c1.133,0,2.208-0.542,3.225-1.625c1.017-1.083,1.908-2.558,2.675-4.425c0.767-1.866,1.367-4.05,1.8-6.55
		C264.619,66.315,264.836,63.631,264.836,60.764z M248.687,42.215l0.65,0.5l0.1-0.15c0.266-0.367,0.55-0.725,0.85-1.075
		c0.3-0.35,0.616-0.658,0.95-0.925l0.15-0.15l-0.55-0.6l-0.15,0.15c-0.7,0.667-1.333,1.367-1.9,2.1L248.687,42.215z M250.836,81.315
		l0.55-0.6l-0.15-0.15c-0.6-0.533-1.2-1.183-1.8-1.95l-0.1-0.15l-0.65,0.45l0.1,0.2c0.3,0.367,0.607,0.734,0.925,1.1
		c0.316,0.367,0.642,0.7,0.975,1L250.836,81.315z M251.336,39.415l0.5,0.65l0.15-0.1c0.367-0.267,0.742-0.508,1.125-0.725
		c0.383-0.216,0.775-0.391,1.175-0.525l0.2-0.05l-0.25-0.8l-0.2,0.05c-0.834,0.267-1.684,0.733-2.55,1.4L251.336,39.415z
		 M254.486,82.514l-0.2-0.1c-0.834-0.267-1.6-0.683-2.3-1.25l-0.15-0.1l-0.5,0.65l0.15,0.15c0.833,0.6,1.683,1.05,2.55,1.35
		l0.2,0.05L254.486,82.514z M254.836,37.715l0.2,0.8l0.15-0.05c0.233-0.066,0.458-0.1,0.675-0.1c0.216,0,0.425,0,0.625,0
		c0.233,0,0.458,0,0.675,0c0.216,0,0.425,0.034,0.625,0.1l0.2,0.05l0.15-0.8l-0.2-0.05c-0.4-0.1-0.817-0.15-1.25-0.15h-0.2h-0.2
		c-0.4,0-0.817,0.05-1.25,0.15L254.836,37.715z M258.136,83.415l-0.15-0.8l-0.2,0.05c-0.4,0.1-0.834,0.15-1.3,0.15
		c-0.434,0-0.867-0.05-1.3-0.15l-0.15-0.05l-0.2,0.8l0.2,0.05c0.433,0.1,0.85,0.15,1.25,0.15h0.2h0.2c0.433,0,0.85-0.05,1.25-0.15
		L258.136,83.415z M258.486,38.665l0.2,0.05c0.4,0.134,0.792,0.309,1.175,0.525c0.383,0.217,0.758,0.458,1.125,0.725l0.15,0.1
		l0.5-0.65l-0.15-0.1c-0.767-0.633-1.617-1.1-2.55-1.4l-0.15-0.05L258.486,38.665z M261.687,81.715l-0.5-0.65l-0.15,0.1
		c-0.367,0.267-0.75,0.508-1.15,0.725c-0.4,0.217-0.8,0.393-1.2,0.525l-0.15,0.05l0.25,0.8l0.2-0.05c0.9-0.333,1.733-0.8,2.5-1.4
		L261.687,81.715z M262.136,39.815l-0.55,0.6l0.15,0.15c0.333,0.267,0.65,0.567,0.95,0.9c0.3,0.333,0.583,0.684,0.85,1.05l0.15,0.2
		l0.65-0.5l-0.15-0.15c-0.3-0.4-0.6-0.775-0.9-1.125c-0.3-0.35-0.634-0.675-1-0.975L262.136,39.815z M264.336,78.915l-0.65-0.5
		l-0.15,0.15c-0.268,0.367-0.55,0.725-0.85,1.075c-0.3,0.35-0.617,0.659-0.95,0.925l-0.15,0.15l0.55,0.6l0.15-0.15
		c0.7-0.6,1.35-1.3,1.95-2.1L264.336,78.915z M266.187,45.315c-0.1-0.2-0.192-0.383-0.275-0.55c-0.084-0.166-0.175-0.333-0.275-0.5
		l-0.1-0.2l-0.1-0.15c-0.1-0.167-0.2-0.342-0.3-0.525c-0.1-0.183-0.217-0.357-0.35-0.525l-0.1-0.15l-0.7,0.45l0.15,0.15
		c0.1,0.2,0.208,0.392,0.325,0.575c0.116,0.184,0.241,0.375,0.375,0.575v0.05c0.1,0.167,0.2,0.342,0.3,0.525
		c0.1,0.184,0.2,0.392,0.3,0.625l0.1,0.2l0.75-0.35L266.187,45.315z M266.287,75.665l-0.75-0.4l-0.1,0.2
		c-0.2,0.467-0.4,0.867-0.6,1.2c-0.134,0.2-0.259,0.4-0.375,0.6c-0.117,0.2-0.225,0.384-0.325,0.55l-0.15,0.15l0.7,0.45l0.1-0.15
		c0.133-0.166,0.25-0.333,0.35-0.5c0.1-0.166,0.2-0.35,0.3-0.55l0.1-0.15l0.1-0.2c0.1-0.167,0.191-0.333,0.275-0.5
		c0.083-0.167,0.175-0.35,0.275-0.55L266.287,75.665z M266.537,46.065l-0.75,0.3l0.1,0.2c0.167,0.4,0.325,0.809,0.475,1.225
		c0.15,0.417,0.308,0.858,0.475,1.325l0.05,0.2l0.8-0.3l-0.05-0.15c-0.167-0.466-0.333-0.917-0.5-1.35
		c-0.167-0.433-0.333-0.866-0.5-1.3L266.537,46.065z M267.687,72.114l-0.75-0.3l-0.1,0.2c-0.167,0.467-0.325,0.909-0.475,1.325
		c-0.15,0.417-0.309,0.825-0.475,1.225l-0.1,0.2l0.75,0.3l0.1-0.15c0.167-0.433,0.333-0.867,0.5-1.3
		c0.167-0.433,0.333-0.883,0.5-1.35L267.687,72.114z M267.886,49.614l-0.8,0.25l0.05,0.2c0.133,0.434,0.258,0.858,0.375,1.275
		c0.117,0.417,0.208,0.858,0.275,1.325l0.05,0.2l0.8-0.15l-0.05-0.2c-0.067-0.466-0.159-0.925-0.275-1.375
		c-0.117-0.45-0.242-0.891-0.375-1.325L267.886,49.614z M268.636,68.415l-0.8-0.15l-0.05,0.15c-0.067,0.467-0.159,0.917-0.275,1.35
		c-0.117,0.434-0.242,0.867-0.375,1.3l-0.05,0.2l0.8,0.25l0.05-0.2c0.133-0.433,0.258-0.875,0.375-1.325
		c0.116-0.45,0.208-0.908,0.275-1.375L268.636,68.415z M268.787,53.315l-0.85,0.15l0.05,0.2c0.066,0.267,0.108,0.517,0.125,0.75
		c0.017,0.233,0.042,0.434,0.075,0.6c0.033,0.2,0.066,0.417,0.1,0.65c0.033,0.233,0.066,0.467,0.1,0.7v0.2l0.8-0.1v-0.2
		c-0.034-0.2-0.059-0.4-0.075-0.6c-0.017-0.2-0.042-0.383-0.075-0.55v-0.2l-0.05-0.2c-0.034-0.167-0.059-0.358-0.075-0.575
		c-0.018-0.216-0.059-0.425-0.125-0.625V53.315z M269.187,64.665l-0.8-0.1v0.2c-0.033,0.268-0.059,0.509-0.075,0.725
		c-0.017,0.217-0.059,0.425-0.125,0.625c-0.034,0.2-0.059,0.409-0.075,0.625c-0.017,0.217-0.059,0.458-0.125,0.725l-0.05,0.2
		l0.85,0.15v-0.2c0.066-0.2,0.107-0.4,0.125-0.6c0.016-0.2,0.041-0.383,0.075-0.55l0.05-0.2v-0.2l0.15-1.2V64.665z M269.287,57.065
		l-0.85,0.05v0.2c0.1,0.967,0.15,1.883,0.15,2.75v0.2h0.85l-0.05-0.2c0-0.466-0.008-0.933-0.025-1.4
		c-0.017-0.467-0.042-0.933-0.075-1.4V57.065z M269.437,60.864h-0.85v0.2c0,0.9-0.05,1.8-0.15,2.7v0.2l0.85,0.1v-0.2
		c0.033-0.466,0.058-0.933,0.075-1.4c0.017-0.466,0.025-0.933,0.025-1.4L269.437,60.864z"/>
	<path fill="#FFFFFF" d="M297.037,39.415l-3.65-3.65l16.75-0.05l-5,5l-6.9,41.5l3.551,3.55h-4.15h-4.051h-4.25h-4.199l3.6-3.6
		l-6.95-41.4l-5-5l12.45-0.05l-3.5,3.5l5.701,33.85L297.037,39.415z M279.536,37.965h3.25v-0.8h-3.25V37.965z M282.736,38.364
		l0.3,1.7l0.8-0.15l-0.3-1.7L282.736,38.364z M283.136,40.614l0.55,3.05l0.8-0.15l-0.55-3.05L283.136,40.614z M283.386,37.165v0.8
		h3.25v-0.8H283.386z M283.786,44.215l0.55,3.05l0.8-0.15l-0.55-3.05L283.786,44.215z M284.736,49.514l0.2,1.3l0.85-0.15l-0.25-1.3
		l-0.05-0.2v-0.2l-0.25-1.3l-0.8,0.15l0.2,1.3l0.05,0.15L284.736,49.514z M285.036,51.364l0.55,3.05l0.85-0.15l-0.55-3
		L285.036,51.364z M285.686,54.965l0.55,3.05l0.8-0.15l-0.5-3.05L285.686,54.965z M286.886,61.565l0.8-0.15l-0.25-1.3l-0.3-1.7
		l-0.8,0.15l0.25,1.3L286.886,61.565z M286.986,62.165l0.55,3l0.8-0.15l-0.55-3L286.986,62.165z M287.636,65.715l0.55,3.05l0.8-0.15
		l-0.55-3L287.636,65.715z M288.586,71.014l0.201,1.35l0.85-0.15l-0.25-1.35l-0.051-0.15v-0.25l-0.25-1.3l-0.799,0.15l0.2,1.3
		l0.05,0.2L288.586,71.014z M290.986,84.315v-0.85h-2.45v0.85H290.986z M290.287,75.815l-0.551-3.05l-0.85,0.15l0.551,3
		L290.287,75.815z M290.886,79.364l-0.5-3l-0.85,0.15l0.549,3L290.886,79.364z M290.486,81.764l0.801-0.1l-0.301-1.75l-0.799,0.15
		L290.486,81.764z M294.787,84.315v-0.85h-3.201v0.85H294.787z M293.335,80.014l-0.35,1.7l0.85,0.15l0.301-1.7L293.335,80.014z
		 M294.236,79.614l0.6-3.05l-0.799-0.15l-0.6,3L294.236,79.614z M294.937,76.014l0.6-3.05l-0.801-0.15l-0.6,3.05L294.937,76.014z
		 M295.085,70.915l-0.25,1.35l0.801,0.15l0.35-1.7l0.25-1.35l-0.799-0.15L295.085,70.915z M296.136,65.614l-0.6,3.05l0.799,0.15
		l0.602-3.05L296.136,65.614z M297.835,84.315v-0.85h-2.25v0.85H297.835z M296.835,62.014l-0.6,3.05l0.801,0.15l0.6-3.05
		L296.835,62.014z M297.486,58.465l-0.25,1.3l-0.299,1.7l0.799,0.15l0.25-1.3l0.35-1.7L297.486,58.465z M297.537,37.165v0.8h3.25
		v-0.8H297.537z M298.437,58.014l0.549-3l-0.799-0.15l-0.551,3L298.437,58.014z M299.136,54.415l0.551-3l-0.801-0.15l-0.6,3
		L299.136,54.415z M300.085,49.514l0.301-1.7l-0.801-0.15l-0.25,1.3l-0.35,1.75l0.85,0.15L300.085,49.514z M300.486,47.264l0.6-3.05
		l-0.799-0.15l-0.6,3.05L300.486,47.264z M301.787,40.614l-0.801-0.15l-0.6,3.05l0.801,0.15L301.787,40.614z M301.437,38.215
		l-0.352,1.7l0.801,0.15l0.35-1.7L301.437,38.215z M302.585,37.165v0.8h3.201v-0.8H302.585z"/>
	<path fill="#FFFFFF" d="M313.736,85.715l4.15-4.15v-41.75l-4.15-4.1h4.15h1.649h6.7v0.05h16.7v3.25v0.9v8.3l-3.75-8.3h-12.95v16.65
		h8.4l4.1-4.2v4.2v4.15v4.15l-4.15-4.15h-8.35v20.85h12.5l4.2-9.2v9.2v4.15h-16.7h-0.85h-6.7h-0.8H313.736z M317.786,38.315h3.2
		v-0.8h-3.2V38.315z M320.986,83.014h-3.2v0.8h3.2V83.014z M321.637,37.915v1.8h0.85v-1.4h1.2v-0.8h-1.601h-0.449V37.915z
		 M321.637,40.315v3.15h0.85v-3.15H321.637z M321.637,44.065v3.15h0.85v-3.15H321.637z M321.637,49.614v1.35h0.85v-1.35v-0.4v-1.4
		h-0.85v1.4V49.614z M321.637,51.565v3.2h0.85v-3.2H321.637z M321.637,55.364v3.15h0.85v-3.15H321.637z M321.637,60.864v1.4h0.85
		v-1.4v-0.4v-1.35h-0.85v1.35V60.864z M321.637,62.864v3.15h0.85v-3.15H321.637z M321.637,66.614v3.15h0.85v-3.15H321.637z
		 M321.637,72.114v1.4h0.85v-1.4v-0.4v-1.35h-0.85v1.35V72.114z M321.637,74.114v3.15h0.85v-3.15H321.637z M321.637,77.864v3.2h0.85
		v-3.2H321.637z M321.637,83.415v0.4h0.449h1.601v-0.8h-1.2v-1.4h-0.85V83.415z M322.687,58.965h2v-0.8h-2V58.965z M324.086,37.514
		v0.8h2.801v-0.8H324.086z M326.887,83.014h-2.75v0.8h2.75V83.014z M329.086,58.165h-3.6v0.8h3.6V58.165z M327.336,37.514v0.8h2.75
		v-0.8H327.336z M327.336,83.014v0.8h2.75v-0.8H327.336z M329.887,58.165v0.8h3.6v-0.8H329.887z M330.536,37.514v0.8h1.2h0.4h1.199
		v-0.8h-1.199h-0.4H330.536z M330.536,83.014v0.8h1.2h0.4h1.199v-0.8h-1.199h-0.4H330.536z M333.736,37.514v0.8h2.8v-0.8H333.736z
		 M333.786,83.014v0.8h2.75v-0.8H333.786z M334.286,58.165v0.8h2v-0.8H334.286z M336.786,55.014v3.25h0.8v-3.25H336.786z
		 M336.786,58.864v3.25h0.8v-3.25H336.786z M336.986,37.514v0.8h2.75v-0.8H336.986z M336.986,83.014v0.8h2.75v-0.8H336.986z
		 M340.187,37.514v0.8h1.6v-0.8H340.187z M340.187,83.014v0.8h1.6v-0.8H340.187z M341.786,42.065v-3.2h-0.85v3.2H341.786z
		 M340.937,79.065v3.2h0.8v-3.2H340.937z"/>
	<path fill="#FFFFFF" d="M390.486,52.364c-0.034,0.734-0.134,1.467-0.301,2.2c-0.167,0.633-0.425,1.317-0.774,2.05
		c-0.351,0.734-0.843,1.4-1.476,2c-0.533,0.567-1.316,0.992-2.35,1.275c-1.033,0.284-2.084,0.492-3.15,0.625
		c-1.233,0.134-2.566,0.2-4,0.2h-4.6v20.85l4.15,4.15h-4.15h-8.3h-4.2l4.2-4.2v-25v-16.6l-4.2-4.2h4.2h1.1h3.75h3.45h8.35
		c1.533,0.1,2.917,0.45,4.15,1.05c0.5,0.268,1,0.6,1.5,1c0.5,0.4,0.95,0.893,1.35,1.475c0.4,0.583,0.717,1.275,0.95,2.075
		c0.233,0.8,0.351,1.717,0.351,2.75V52.364z M368.936,83.514h-3.5v0.85h3.5V83.514z M368.736,38.114v-0.8h-3.2v0.8H368.736z
		 M370.086,38.114h1.6v-0.8h-2h-0.399v0.4v1.85h0.8V38.114z M370.086,40.165h-0.8v3.2h0.8V40.165z M370.086,43.965h-0.8v3.25h0.8
		V43.965z M370.086,47.815h-0.8v1.4v0.4v1.45h0.8v-1.45v-0.4V47.815z M370.086,51.665h-0.8v3.2h0.8V51.665z M370.086,55.465h-0.8
		v3.25h0.8V55.465z M370.086,59.315h-0.8v1.4v0.4v1.45h0.8v-1.45v-0.4V59.315z M370.086,63.165h-0.8v3.2h0.8V63.165z
		 M370.086,66.965h-0.8v3.25h0.8V66.965z M370.086,70.815h-0.8v1.4v0.4v1.4h0.8v-1.4v-0.4V70.815z M370.086,74.665h-0.8v3.2h0.8
		V74.665z M370.086,78.465h-0.8v3.25h0.8V78.465z M370.086,82.315h-0.8v1.8h0.8V82.315z M370.486,83.514v0.85h3.55v-0.85H370.486z
		 M370.536,58.264v0.85h1.6v-0.85H370.536z M372.436,38.114h3.601v-0.8h-3.601V38.114z M375.486,58.264h-2.851v0.85h2.851V58.264z
		 M382.186,44.065c0-1.066-0.217-1.875-0.649-2.425c-0.434-0.55-0.917-0.958-1.45-1.225c-0.6-0.3-1.283-0.483-2.05-0.55h-4.2v16.65
		h4.8c0.866-0.1,1.542-0.366,2.025-0.8c0.482-0.433,0.841-0.9,1.075-1.4c0.266-0.6,0.416-1.25,0.449-1.95V44.065z M378.836,59.065
		v-0.8h-0.2h-1.05h-0.55h-0.851h-0.199v0.85h0.199h0.851h0.5h1.1L378.836,59.065z M376.786,38.165l0.25-0.05
		c0.966,0,1.982,0.117,3.05,0.35l0.2,0.05l0.2-0.8l-0.2-0.05c-0.601-0.133-1.175-0.233-1.726-0.3
		c-0.55-0.066-1.074-0.083-1.574-0.05h-0.2V38.165z M382.236,58.114l-0.4-0.7l-0.15,0.1c-0.167,0.067-0.342,0.134-0.524,0.2
		c-0.184,0.067-0.375,0.134-0.575,0.2c-0.167,0.067-0.342,0.117-0.525,0.15c-0.184,0.034-0.375,0.083-0.574,0.15h-0.2l0.1,0.8h0.2
		c0.3-0.033,0.666-0.116,1.1-0.25l0.15-0.05l0.2-0.05c0.166-0.066,0.333-0.133,0.5-0.2c0.166-0.066,0.333-0.15,0.5-0.25
		L382.236,58.114z M380.986,38.715l0.149,0.05c0.5,0.134,0.983,0.334,1.45,0.6c0.232,0.134,0.458,0.259,0.675,0.375
		c0.217,0.117,0.408,0.259,0.575,0.425l0.15,0.1l0.55-0.6l-0.15-0.15c-0.367-0.266-0.783-0.533-1.25-0.8l-0.2-0.1l-0.149-0.1
		c-0.233-0.1-0.459-0.2-0.675-0.3c-0.218-0.1-0.442-0.183-0.676-0.25l-0.199-0.05L380.986,38.715z M384.786,55.764l-0.65-0.5
		l-0.1,0.15c-0.5,0.667-1.05,1.217-1.65,1.65l-0.149,0.1l0.449,0.7l0.15-0.15c0.767-0.5,1.383-1.1,1.85-1.8L384.786,55.764z
		 M386.286,52.614l-0.75-0.25l-0.101,0.2c-0.267,0.833-0.583,1.55-0.949,2.15l-0.101,0.2l0.7,0.4l0.1-0.15
		c0.434-0.7,0.783-1.483,1.051-2.35L386.286,52.614z M385.136,40.215l-0.649,0.55l0.149,0.15c0.633,0.733,1.033,1.617,1.2,2.65
		l0.05,0.2l0.8-0.1l-0.05-0.2c-0.167-1.2-0.634-2.233-1.399-3.1L385.136,40.215z M386.786,50.465h-0.05v-1.6l-0.801-0.05v1.8
		c-0.033,0.3-0.117,0.667-0.25,1.1l-0.05,0.2l0.8,0.2l0.051-0.2c0.066-0.167,0.107-0.333,0.125-0.5
		c0.016-0.167,0.058-0.35,0.125-0.55v-0.2L386.786,50.465z M385.936,44.465v3.6l0.801,0.05v-3.65H385.936z"/>
	<path fill="#FFFFFF" d="M420.686,58.614c-0.566,0.6-1.417,1.042-2.55,1.325c-1.134,0.284-2.25,0.492-3.35,0.625l12.649,25.15
		h-6.399h-2h-4.101l2.7-2.75l-11.05-22.05v20.65l4.15,4.15h-4.15h-8.3h-4.2l4.2-4.2v-25v-16.6l-4.2-4.2h4.2h1.1h3.75h3.45h8.35
		c1.533,0.1,2.917,0.45,4.15,1.05c0.5,0.268,1,0.6,1.5,1c0.5,0.4,0.95,0.893,1.35,1.475c0.4,0.583,0.717,1.275,0.95,2.075
		c0.233,0.8,0.351,1.717,0.351,2.75v8.3c-0.034,0.734-0.134,1.467-0.301,2.2c-0.167,0.633-0.425,1.317-0.774,2.05
		C421.811,57.348,421.318,58.014,420.686,58.614z M401.686,83.514h-3.5v0.85h3.5V83.514z M401.486,38.114v-0.8h-3.2v0.8H401.486z
		 M402.836,38.114h1.6v-0.8h-2h-0.449l0.05,0.4v1.85h0.8V38.114z M402.836,40.165h-0.8v3.2h0.8V40.165z M402.836,43.965h-0.8v3.25
		h0.8V43.965z M402.836,47.815h-0.8v1.4v0.4v1.45h0.8v-1.45v-0.4V47.815z M402.836,51.665h-0.8v3.2h0.8V51.665z M402.836,55.465
		h-0.8v3.25h0.8V55.465z M402.836,59.315h-0.8v1.4v0.4v1.45h0.8v-1.45v-0.4V59.315z M402.836,63.165h-0.8v3.2h0.8V63.165z
		 M402.836,66.965h-0.8v3.25h0.8V66.965z M402.836,70.815h-0.8v1.4v0.4v1.4h0.8v-1.4v-0.4V70.815z M402.836,74.665h-0.8v3.2h0.8
		V74.665z M402.836,78.465h-0.8v3.25h0.8V78.465z M402.836,82.315h-0.8v1.8h0.8V82.315z M403.236,83.514v0.85h3.55v-0.85H403.236z
		 M403.286,58.264v0.85h1.6v-0.85H403.286z M405.186,38.114h3.601v-0.8h-3.601V38.114z M408.236,58.264h-2.851v0.85h2.851V58.264z
		 M411.386,56.514c0.866-0.1,1.542-0.366,2.025-0.8c0.482-0.433,0.841-0.9,1.075-1.4c0.266-0.6,0.416-1.25,0.449-1.95v-8.3
		c0-1.066-0.217-1.875-0.649-2.425c-0.434-0.55-0.917-0.958-1.45-1.225c-0.6-0.3-1.283-0.483-2.05-0.55h-4.2v16.65H411.386z
		 M409.786,59.114h0.5h1.1l0.2-0.05v-0.8h-0.2h-1.05h-0.55h-0.851h-0.199v0.85h0.199H409.786z M409.536,38.165l0.25-0.05
		c0.966,0,1.982,0.117,3.05,0.35l0.2,0.05l0.2-0.8l-0.2-0.05c-0.601-0.133-1.175-0.233-1.726-0.3
		c-0.55-0.066-1.074-0.083-1.574-0.05h-0.2V38.165z M410.636,61.364l0.75-0.35l-0.95-1.85l-0.75,0.35L410.636,61.364z
		 M412.686,65.465l0.7-0.4l-1.649-3.3l-0.75,0.35L412.686,65.465z M414.986,58.114l-0.4-0.7l-0.15,0.1
		c-0.167,0.067-0.342,0.134-0.524,0.2c-0.184,0.067-0.375,0.134-0.575,0.2c-0.167,0.067-0.342,0.117-0.525,0.15
		c-0.184,0.034-0.375,0.083-0.574,0.15h-0.2l0.1,0.8h0.2c0.3-0.033,0.666-0.116,1.1-0.25l0.15-0.05l0.2-0.05
		c0.166-0.066,0.333-0.133,0.5-0.2c0.166-0.066,0.333-0.15,0.5-0.25L414.986,58.114z M413.786,65.815l-0.75,0.35l1.649,3.35
		l0.75-0.35L413.786,65.815z M413.736,38.715l0.149,0.05c0.5,0.134,0.983,0.334,1.45,0.6c0.232,0.134,0.458,0.259,0.675,0.375
		c0.217,0.117,0.408,0.259,0.575,0.425l0.15,0.1l0.55-0.6l-0.15-0.15c-0.367-0.266-0.783-0.533-1.25-0.8l-0.2-0.1l-0.149-0.1
		c-0.233-0.1-0.459-0.2-0.675-0.3c-0.218-0.1-0.442-0.183-0.676-0.25l-0.199-0.05L413.736,38.715z M417.536,55.764l-0.65-0.5
		l-0.1,0.15c-0.5,0.667-1.05,1.217-1.65,1.65l-0.149,0.1l0.449,0.7l0.15-0.15c0.767-0.5,1.383-1.1,1.85-1.8L417.536,55.764z
		 M415.786,69.864l-0.75,0.35l0.75,1.5l0.95,1.85l0.699-0.35l-0.899-1.85L415.786,69.864z M417.836,73.915l-0.75,0.4l1.65,3.35
		l0.75-0.4L417.836,73.915z M419.036,52.614l-0.75-0.25l-0.101,0.2c-0.267,0.833-0.583,1.55-0.949,2.15l-0.101,0.2l0.7,0.4l0.1-0.15
		c0.434-0.7,0.783-1.483,1.051-2.35L419.036,52.614z M417.886,40.215l-0.649,0.55l0.149,0.15c0.633,0.733,1.033,1.617,1.2,2.65
		l0.05,0.2l0.8-0.1l-0.05-0.2c-0.167-1.2-0.634-2.233-1.399-3.1L417.886,40.215z M421.136,83.514h-3.5v0.85h3.5V83.514z
		 M419.536,50.465h-0.05v-1.6l-0.801-0.05v1.8c-0.033,0.3-0.117,0.667-0.25,1.1l-0.05,0.2l0.8,0.2l0.051-0.2
		c0.066-0.167,0.107-0.333,0.125-0.5c0.016-0.167,0.058-0.35,0.125-0.55v-0.2L419.536,50.465z M419.486,44.465h-0.801v3.6
		l0.801,0.05V44.465z M419.836,78.014l-0.75,0.35l1.7,3.35l0.75-0.35L419.836,78.014z M421.886,82.065l-0.75,0.35l0.851,1.75
		l0.1,0.2h0.2h3.3v-0.85h-3L421.886,82.065z"/>
	<path fill="#FFFFFF" d="M447.686,35.715c2.3,0,4.466,0.659,6.5,1.975c2.032,1.317,3.8,3.1,5.3,5.35s2.691,4.9,3.575,7.95
		c0.883,3.05,1.324,6.292,1.324,9.725c0,3.467-0.441,6.717-1.324,9.75c-0.884,3.034-2.075,5.675-3.575,7.925s-3.268,4.034-5.3,5.35
		c-2.034,1.317-4.2,1.975-6.5,1.975c-2.301,0-4.459-0.658-6.476-1.975c-2.017-1.316-3.783-3.1-5.3-5.35
		c-1.518-2.25-2.709-4.891-3.575-7.925c-0.867-3.033-1.3-6.283-1.3-9.75c0-3.433,0.433-6.675,1.3-9.725
		c0.866-3.05,2.058-5.7,3.575-7.95c1.517-2.25,3.283-4.033,5.3-5.35C443.227,36.373,445.385,35.715,447.686,35.715z M434.785,60.264
		h0.85v-0.2c0-0.433,0.008-0.875,0.025-1.325c0.017-0.45,0.041-0.908,0.075-1.375v-0.2l-0.8-0.05v0.15c-0.101,1-0.15,1.934-0.15,2.8
		V60.264z M434.936,64.065l0.8-0.05v-0.2c-0.034-0.466-0.059-0.925-0.075-1.375c-0.018-0.45-0.025-0.908-0.025-1.375v-0.2h-0.85v0.2
		c0,0.934,0.05,1.867,0.15,2.8V64.065z M434.985,56.465l0.85,0.1v-0.2c0.033-0.233,0.058-0.466,0.075-0.7
		c0.017-0.233,0.041-0.45,0.075-0.65c0.066-0.266,0.107-0.508,0.125-0.725c0.017-0.217,0.058-0.425,0.125-0.625v-0.2l-0.8-0.15
		l-0.051,0.2c-0.033,0.167-0.059,0.342-0.074,0.525c-0.018,0.184-0.059,0.408-0.125,0.675v0.2l-0.051,0.2
		c-0.033,0.167-0.059,0.35-0.074,0.55c-0.018,0.2-0.043,0.4-0.075,0.6V56.465z M435.436,67.815l0.8-0.15v-0.2
		c-0.067-0.167-0.108-0.366-0.125-0.6c-0.018-0.233-0.059-0.483-0.125-0.75c-0.067-0.4-0.117-0.85-0.15-1.35v-0.2l-0.85,0.1v0.2
		l0.149,1.2l0.051,0.2v0.2c0.066,0.233,0.107,0.442,0.125,0.625c0.016,0.184,0.041,0.358,0.074,0.525L435.436,67.815z
		 M435.535,52.715l0.8,0.2l0.05-0.2c0.101-0.466,0.2-0.917,0.301-1.35c0.1-0.433,0.216-0.866,0.35-1.3l0.1-0.2l-0.8-0.25l-0.05,0.2
		c-0.167,0.467-0.3,0.917-0.4,1.35c-0.1,0.434-0.199,0.883-0.3,1.35L435.535,52.715z M436.335,71.514l0.8-0.25l-0.05-0.15
		c-0.167-0.433-0.3-0.866-0.399-1.3c-0.101-0.433-0.2-0.883-0.301-1.35l-0.05-0.2l-0.8,0.15l0.05,0.2
		c0.101,0.467,0.208,0.925,0.325,1.375c0.116,0.45,0.241,0.892,0.375,1.325L436.335,71.514z M436.485,49.065l0.8,0.25l0.05-0.2
		c0.167-0.466,0.333-0.908,0.5-1.325c0.167-0.417,0.333-0.825,0.5-1.225l0.05-0.15l-0.75-0.35l-0.05,0.2
		c-0.2,0.4-0.375,0.817-0.524,1.25c-0.15,0.434-0.309,0.884-0.476,1.35L436.485,49.065z M437.635,75.114l0.801-0.35l-0.101-0.2
		c-0.167-0.4-0.333-0.808-0.5-1.225c-0.167-0.417-0.333-0.858-0.5-1.325l-0.05-0.15l-0.8,0.25l0.1,0.2c0.3,0.867,0.633,1.733,1,2.6
		L437.635,75.114z M437.936,45.514l0.699,0.35l0.101-0.2c0.133-0.233,0.25-0.441,0.35-0.625c0.101-0.183,0.2-0.358,0.3-0.525v-0.05
		c0.101-0.2,0.208-0.392,0.325-0.575c0.116-0.183,0.241-0.375,0.375-0.575l0.101-0.15l-0.7-0.45l-0.101,0.15
		c-0.1,0.167-0.199,0.342-0.3,0.525c-0.1,0.184-0.217,0.359-0.35,0.525l-0.101,0.15l-0.1,0.2h0.05c-0.2,0.3-0.399,0.65-0.6,1.05
		L437.936,45.514z M439.485,78.415l0.7-0.45l-0.101-0.15c-0.267-0.4-0.5-0.783-0.7-1.15c-0.1-0.167-0.199-0.35-0.3-0.55
		c-0.1-0.2-0.217-0.417-0.35-0.65l-0.101-0.2l-0.699,0.4l0.05,0.15c0.2,0.4,0.399,0.75,0.6,1.05h-0.05l0.1,0.2h0.051l0.05,0.15
		c0.133,0.2,0.25,0.384,0.35,0.55c0.101,0.167,0.2,0.334,0.3,0.5L439.485,78.415z M456.035,60.764c0-2.833-0.217-5.508-0.65-8.025
		c-0.434-2.516-1.033-4.7-1.8-6.55s-1.658-3.316-2.675-4.4c-1.018-1.083-2.092-1.625-3.225-1.625c-1.168,0-2.25,0.542-3.25,1.625
		c-1,1.083-1.875,2.55-2.625,4.4s-1.343,4.034-1.775,6.55c-0.434,2.517-0.65,5.192-0.65,8.025c0,2.867,0.217,5.55,0.65,8.05
		c0.433,2.5,1.025,4.684,1.775,6.55c0.75,1.867,1.625,3.342,2.625,4.425c1,1.083,2.082,1.625,3.25,1.625
		c1.133,0,2.207-0.542,3.225-1.625c1.017-1.083,1.908-2.558,2.675-4.425c0.767-1.866,1.366-4.05,1.8-6.55
		S456.035,63.631,456.035,60.764z M439.885,42.215l0.65,0.5l0.1-0.15c0.267-0.367,0.551-0.725,0.851-1.075s0.616-0.658,0.95-0.925
		l0.149-0.15l-0.55-0.6l-0.15,0.15c-0.699,0.667-1.333,1.367-1.899,2.1L439.885,42.215z M442.035,81.315l0.55-0.6l-0.149-0.15
		c-0.601-0.533-1.2-1.183-1.801-1.95l-0.1-0.15l-0.65,0.45l0.101,0.2c0.3,0.367,0.607,0.734,0.925,1.1
		c0.316,0.367,0.642,0.7,0.975,1L442.035,81.315z M442.535,39.415l0.5,0.65l0.15-0.1c0.366-0.267,0.741-0.508,1.125-0.725
		c0.383-0.216,0.774-0.391,1.175-0.525l0.2-0.05l-0.25-0.8l-0.2,0.05c-0.834,0.267-1.684,0.733-2.55,1.4L442.535,39.415z
		 M445.686,82.514l-0.2-0.1c-0.834-0.267-1.601-0.683-2.3-1.25l-0.15-0.1l-0.5,0.65l0.15,0.15c0.832,0.6,1.683,1.05,2.55,1.35
		l0.2,0.05L445.686,82.514z M446.035,37.715l0.2,0.8l0.149-0.05c0.233-0.066,0.458-0.1,0.676-0.1c0.216,0,0.425,0,0.625,0
		c0.232,0,0.457,0,0.675,0c0.216,0,0.425,0.034,0.625,0.1l0.2,0.05l0.149-0.8l-0.2-0.05c-0.399-0.1-0.816-0.15-1.25-0.15h-0.199
		h-0.2c-0.4,0-0.817,0.05-1.25,0.15L446.035,37.715z M449.335,83.415l-0.149-0.8l-0.2,0.05c-0.4,0.1-0.834,0.15-1.3,0.15
		c-0.434,0-0.867-0.05-1.301-0.15l-0.149-0.05l-0.2,0.8l0.2,0.05c0.433,0.1,0.85,0.15,1.25,0.15h0.2h0.199
		c0.434,0,0.851-0.05,1.25-0.15L449.335,83.415z M449.686,38.665l0.199,0.05c0.4,0.134,0.792,0.309,1.176,0.525
		c0.383,0.217,0.758,0.458,1.125,0.725l0.149,0.1l0.5-0.65l-0.149-0.1c-0.768-0.633-1.617-1.1-2.551-1.4l-0.149-0.05L449.686,38.665
		z M452.885,81.715l-0.5-0.65l-0.149,0.1c-0.367,0.267-0.75,0.508-1.15,0.725c-0.399,0.217-0.8,0.393-1.2,0.525l-0.149,0.05
		l0.25,0.8l0.2-0.05c0.899-0.333,1.732-0.8,2.5-1.4L452.885,81.715z M453.335,39.815l-0.55,0.6l0.15,0.15
		c0.332,0.267,0.649,0.567,0.949,0.9c0.301,0.333,0.583,0.684,0.851,1.05l0.149,0.2l0.65-0.5l-0.15-0.15
		c-0.3-0.4-0.6-0.775-0.899-1.125s-0.634-0.675-1-0.975L453.335,39.815z M455.535,78.915l-0.65-0.5l-0.149,0.15
		c-0.268,0.367-0.55,0.725-0.851,1.075c-0.3,0.35-0.617,0.659-0.949,0.925l-0.15,0.15l0.55,0.6l0.15-0.15c0.7-0.6,1.35-1.3,1.95-2.1
		L455.535,78.915z M457.385,45.315c-0.1-0.2-0.191-0.383-0.274-0.55c-0.084-0.166-0.175-0.333-0.275-0.5l-0.1-0.2l-0.101-0.15
		c-0.1-0.167-0.199-0.342-0.3-0.525c-0.1-0.183-0.217-0.357-0.35-0.525l-0.101-0.15l-0.699,0.45l0.149,0.15
		c0.101,0.2,0.208,0.392,0.325,0.575c0.116,0.184,0.241,0.375,0.375,0.575v0.05c0.1,0.167,0.2,0.342,0.3,0.525
		c0.101,0.184,0.2,0.392,0.3,0.625l0.101,0.2l0.75-0.35L457.385,45.315z M457.485,75.665l-0.75-0.4l-0.101,0.2
		c-0.199,0.467-0.399,0.867-0.6,1.2c-0.134,0.2-0.259,0.4-0.375,0.6c-0.117,0.2-0.225,0.384-0.325,0.55l-0.149,0.15l0.699,0.45
		l0.101-0.15c0.133-0.166,0.25-0.333,0.35-0.5c0.101-0.166,0.2-0.35,0.3-0.55l0.101-0.15l0.1-0.2c0.101-0.167,0.191-0.333,0.275-0.5
		c0.083-0.167,0.175-0.35,0.274-0.55L457.485,75.665z M457.735,46.065l-0.75,0.3l0.1,0.2c0.167,0.4,0.325,0.809,0.476,1.225
		c0.149,0.417,0.308,0.858,0.475,1.325l0.05,0.2l0.8-0.3l-0.05-0.15c-0.167-0.466-0.333-0.917-0.5-1.35
		c-0.167-0.433-0.333-0.866-0.5-1.3L457.735,46.065z M458.885,72.114l-0.75-0.3l-0.1,0.2c-0.167,0.467-0.325,0.909-0.475,1.325
		c-0.15,0.417-0.309,0.825-0.476,1.225l-0.1,0.2l0.75,0.3l0.1-0.15c0.167-0.433,0.333-0.867,0.5-1.3
		c0.167-0.433,0.333-0.883,0.5-1.35L458.885,72.114z M459.085,49.614l-0.8,0.25l0.05,0.2c0.133,0.434,0.258,0.858,0.375,1.275
		c0.116,0.417,0.208,0.858,0.275,1.325l0.05,0.2l0.8-0.15l-0.05-0.2c-0.067-0.466-0.158-0.925-0.275-1.375
		c-0.117-0.45-0.242-0.891-0.375-1.325L459.085,49.614z M459.835,68.415l-0.8-0.15l-0.05,0.15c-0.067,0.467-0.159,0.917-0.275,1.35
		c-0.117,0.434-0.242,0.867-0.375,1.3l-0.05,0.2l0.8,0.25l0.05-0.2c0.133-0.433,0.258-0.875,0.375-1.325
		c0.117-0.45,0.208-0.908,0.275-1.375L459.835,68.415z M459.985,53.315l-0.851,0.15l0.051,0.2c0.066,0.267,0.107,0.517,0.125,0.75
		c0.016,0.233,0.041,0.434,0.074,0.6c0.033,0.2,0.066,0.417,0.101,0.65c0.032,0.233,0.066,0.467,0.1,0.7v0.2l0.8-0.1v-0.2
		c-0.033-0.2-0.059-0.4-0.074-0.6c-0.018-0.2-0.043-0.383-0.075-0.55v-0.2l-0.05-0.2c-0.034-0.167-0.059-0.358-0.075-0.575
		c-0.018-0.216-0.059-0.425-0.125-0.625V53.315z M460.385,64.665l-0.8-0.1v0.2c-0.033,0.268-0.059,0.509-0.075,0.725
		c-0.017,0.217-0.059,0.425-0.125,0.625c-0.033,0.2-0.059,0.409-0.074,0.625c-0.018,0.217-0.059,0.458-0.125,0.725l-0.051,0.2
		l0.851,0.15v-0.2c0.066-0.2,0.107-0.4,0.125-0.6c0.017-0.2,0.041-0.383,0.075-0.55l0.05-0.2v-0.2l0.149-1.2V64.665z
		 M460.485,57.065l-0.851,0.05v0.2c0.101,0.967,0.15,1.883,0.15,2.75v0.2h0.85l-0.05-0.2c0-0.466-0.009-0.933-0.024-1.4
		c-0.018-0.467-0.043-0.933-0.075-1.4V57.065z M460.635,60.864h-0.85v0.2c0,0.9-0.05,1.8-0.15,2.7v0.2l0.851,0.1v-0.2
		c0.032-0.466,0.058-0.933,0.075-1.4c0.016-0.466,0.024-0.933,0.024-1.4L460.635,60.864z"/>
	<path fill="#FFFFFF" d="M492.936,35.715h4.2l-4.2,4.15v33.4c0,1.734-0.325,3.359-0.976,4.875c-0.649,1.518-1.542,2.842-2.675,3.975
		c-1.134,1.134-2.45,2.025-3.95,2.675c-1.5,0.65-3.117,0.975-4.85,0.975c-1.733,0-3.358-0.325-4.875-0.975
		c-1.518-0.65-2.842-1.542-3.975-2.675c-1.134-1.133-2.025-2.458-2.676-3.975c-0.649-1.516-0.975-3.141-0.975-4.875
		c0-1.9,0.383-3.658,1.15-5.275c0.766-1.616,1.816-2.991,3.149-4.125c0.233-0.9,0.726-1.65,1.476-2.25s1.607-0.9,2.574-0.9
		c0.601,0,1.133,0.117,1.601,0.35c0.767,0.3,1.383,0.792,1.85,1.475c0.467,0.684,0.7,1.458,0.7,2.325c0,0.234-0.018,0.4-0.05,0.5
		c-0.101,1.034-0.542,1.909-1.325,2.625c-0.783,0.717-1.709,1.075-2.775,1.075s-2-0.367-2.8-1.1
		c-0.434,0.733-0.774,1.542-1.024,2.425c-0.25,0.884-0.375,1.825-0.375,2.825c0,1.167,0.166,2.25,0.5,3.25
		c0.332,1,0.782,1.884,1.35,2.65c0.566,0.767,1.225,1.367,1.975,1.8c0.75,0.434,1.559,0.65,2.426,0.65
		c0.866,0,1.675-0.216,2.425-0.65c0.75-0.433,1.407-1.033,1.975-1.8c0.566-0.766,1.017-1.65,1.351-2.65c0.332-1,0.5-2.083,0.5-3.25
		v-11.7v-21.65l-4.15-4.15h4.15H492.936z M469.735,75.465l0.8-0.1v-0.2c-0.067-0.233-0.1-0.458-0.1-0.675
		c0-0.216-0.018-0.425-0.05-0.625c0-0.233,0.008-0.458,0.024-0.675c0.017-0.216,0.025-0.425,0.025-0.625l0.05-0.2l-0.85-0.1v0.2
		c-0.034,0.2-0.051,0.4-0.051,0.6c0,0.2,0,0.4,0,0.6v0.2v0.2c0,0.2,0.008,0.4,0.025,0.6c0.017,0.2,0.041,0.4,0.075,0.6
		L469.735,75.465z M469.735,71.715l0.8,0.1l0.05-0.2c0.101-0.833,0.301-1.683,0.601-2.55l0.05-0.2l-0.75-0.25l-0.1,0.2
		c-0.168,0.434-0.301,0.875-0.4,1.325c-0.1,0.45-0.184,0.909-0.25,1.375V71.715z M470.985,79.065l0.75-0.4l-0.1-0.2
		c-0.367-0.667-0.684-1.466-0.95-2.4l-0.05-0.2l-0.801,0.2l0.051,0.2c0.133,0.467,0.274,0.917,0.425,1.35
		c0.149,0.434,0.341,0.85,0.575,1.25L470.985,79.065z M470.686,68.065l0.75,0.3l0.1-0.2c0.366-0.867,0.783-1.617,1.25-2.25
		l0.101-0.15l-0.65-0.5l-0.1,0.15c-0.534,0.733-1,1.55-1.4,2.45L470.686,68.065z M473.436,81.965l0.55-0.65l-0.2-0.1
		c-0.333-0.267-0.634-0.558-0.899-0.875c-0.268-0.316-0.534-0.658-0.801-1.025l-0.1-0.2l-0.7,0.45l0.15,0.2
		c0.267,0.4,0.55,0.775,0.85,1.125c0.3,0.35,0.633,0.675,1,0.975L473.436,81.965z M472.636,64.815l0.6,0.55l0.15-0.15
		c0.3-0.333,0.6-0.633,0.899-0.9c0.167-0.167,0.342-0.3,0.525-0.4c0.183-0.1,0.357-0.2,0.524-0.3l0.2-0.1l-0.35-0.7l-0.2,0.05
		c-0.167,0.1-0.342,0.2-0.525,0.3c-0.184,0.1-0.358,0.233-0.524,0.4l-0.15,0.1l-0.149,0.15c-0.168,0.133-0.317,0.267-0.45,0.4
		c-0.134,0.134-0.268,0.284-0.4,0.45L472.636,64.815z M477.085,82.864l-0.199-0.05c-0.468-0.1-0.867-0.25-1.2-0.45
		c-0.434-0.167-0.817-0.366-1.15-0.6l-0.149-0.1l-0.45,0.65l0.149,0.15l1.051,0.6l0.199,0.05l0.15,0.1
		c0.2,0.067,0.392,0.134,0.575,0.2c0.183,0.067,0.375,0.133,0.575,0.2l0.199,0.05L477.085,82.864z M475.585,67.165h-0.149
		l-0.101,0.8h0.2h0.25c0.433,0,0.851-0.05,1.25-0.15l0.2-0.1l-0.25-0.75l-0.2,0.05c-0.3,0.1-0.634,0.15-1,0.15H475.585z
		 M475.785,62.565l0.2,0.8l0.2-0.05c0.267-0.066,0.466-0.1,0.6-0.1c0.633,0,1.083,0.217,1.351,0.65l0.1,0.2l0.7-0.45l-0.101-0.15
		c-0.3-0.533-0.75-0.85-1.35-0.95c-0.467-0.166-0.967-0.166-1.5,0L475.785,62.565z M479.186,64.315l-0.851,0.1v0.2
		c0.066,0.434,0.017,0.825-0.149,1.175c-0.167,0.35-0.384,0.625-0.65,0.825l-0.149,0.15l0.5,0.65l0.149-0.1
		c0.866-0.667,1.25-1.583,1.15-2.75V64.315z M480.636,83.864l-0.051-0.8h-0.199c-0.2,0.034-0.393,0.05-0.575,0.05
		c-0.184,0-0.358,0-0.525,0c-0.267,0-0.517,0-0.75,0s-0.483-0.033-0.75-0.1l-0.2-0.05l-0.149,0.85h0.2
		c0.532,0.1,1.082,0.15,1.649,0.15c0.167,0,0.351,0,0.55,0c0.2,0,0.4-0.017,0.601-0.05L480.636,83.864z M484.285,82.915l-0.3-0.8
		l-0.2,0.1c-0.767,0.3-1.6,0.55-2.5,0.75h-0.2l0.15,0.85l0.2-0.05c0.466-0.1,0.916-0.216,1.35-0.35
		c0.433-0.133,0.866-0.283,1.3-0.45L484.285,82.915z M487.035,80.215l-0.7-0.45l-0.1,0.2c-0.134,0.2-0.259,0.375-0.375,0.525
		c-0.117,0.15-0.242,0.309-0.375,0.475c-0.334,0.4-0.634,0.684-0.9,0.85l-0.149,0.15l0.45,0.65l0.149-0.1
		c0.366-0.266,0.683-0.55,0.95-0.85l0.15-0.15l0.1-0.15c0.133-0.167,0.258-0.325,0.375-0.475c0.116-0.15,0.225-0.325,0.325-0.525
		L487.035,80.215z M484.735,38.014h3.2v-0.85h-3.2V38.014z M488.436,76.665l-0.8-0.2l-0.051,0.2
		c-0.233,0.867-0.533,1.684-0.899,2.45l-0.101,0.2l0.75,0.35l0.101-0.2c0.166-0.4,0.325-0.816,0.475-1.25
		c0.15-0.433,0.308-0.883,0.476-1.35L488.436,76.665z M489.035,73.014l-0.8-0.1l-0.05,0.2c-0.067,0.467-0.125,0.917-0.175,1.35
		c-0.051,0.434-0.125,0.85-0.226,1.25l-0.05,0.2l0.8,0.2l0.05-0.2c0.101-0.433,0.184-0.875,0.25-1.325s0.133-0.908,0.2-1.375V73.014
		z M489.235,69.315h-0.85v0.2v1.1v0.2v0.2c-0.034,0.167-0.051,0.342-0.051,0.525c0,0.184-0.017,0.392-0.05,0.625v0.2l0.8,0.05
		l0.051-0.2c0-0.267,0.008-0.508,0.024-0.725c0.017-0.216,0.025-0.425,0.025-0.625c0.032-0.233,0.05-0.45,0.05-0.65s0-0.433,0-0.7
		V69.315z M489.235,37.614h-0.85v1.75h0.85V37.614z M488.386,43.014h0.85v-3.1h-0.85V43.014z M488.386,46.665h0.85v-3.05h-0.85
		V46.665z M488.386,50.364h0.85v-1.45v-1.65h-0.85v1.35v0.3v0.1V50.364z M488.386,54.014h0.85v-3.1h-0.85V54.014z M488.386,54.614
		v3.1h0.85v-3.1H488.386z M488.386,59.614v0.25v0.15v1.35h0.85v-1.5v-1.6h-0.85V59.614z M488.386,61.965v3.1h0.85v-3.1H488.386z
		 M488.386,65.614v3.1h0.85v-3.1H488.386z M492.985,37.165h-3.2v0.85h3.2V37.165z"/>
	<path fill="#FFFFFF" d="M500.735,85.715l4.15-4.15v-41.75l-4.15-4.1h4.15h1.649h6.7v0.05h16.7v3.25v0.9v8.3l-3.75-8.3h-12.95v16.65
		h8.4l4.1-4.2v4.2v4.15v4.15l-4.15-4.15h-8.35v20.85h12.5l4.2-9.2v9.2v4.15h-16.7h-0.85h-6.7h-0.8H500.735z M504.785,38.315h3.2
		v-0.8h-3.2V38.315z M507.985,83.014h-3.2v0.8h3.2V83.014z M508.636,37.915v1.8h0.85v-1.4h1.2v-0.8h-1.601h-0.449V37.915z
		 M508.636,40.315v3.15h0.85v-3.15H508.636z M508.636,44.065v3.15h0.85v-3.15H508.636z M508.636,49.614v1.35h0.85v-1.35v-0.4v-1.4
		h-0.85v1.4V49.614z M508.636,51.565v3.2h0.85v-3.2H508.636z M508.636,55.364v3.15h0.85v-3.15H508.636z M508.636,60.864v1.4h0.85
		v-1.4v-0.4v-1.35h-0.85v1.35V60.864z M508.636,62.864v3.15h0.85v-3.15H508.636z M508.636,66.614v3.15h0.85v-3.15H508.636z
		 M508.636,72.114v1.4h0.85v-1.4v-0.4v-1.35h-0.85v1.35V72.114z M508.636,74.114v3.15h0.85v-3.15H508.636z M508.636,77.864v3.2h0.85
		v-3.2H508.636z M508.636,83.415v0.4h0.449h1.601v-0.8h-1.2v-1.4h-0.85V83.415z M509.686,58.965h2v-0.8h-2V58.965z M511.085,37.514
		v0.8h2.801v-0.8H511.085z M513.886,83.014h-2.75v0.8h2.75V83.014z M516.085,58.165h-3.6v0.8h3.6V58.165z M514.335,37.514v0.8h2.75
		v-0.8H514.335z M514.335,83.014v0.8h2.75v-0.8H514.335z M516.886,58.165v0.8h3.6v-0.8H516.886z M517.535,37.514v0.8h1.2h0.4h1.199
		v-0.8h-1.199h-0.4H517.535z M517.535,83.014v0.8h1.2h0.4h1.199v-0.8h-1.199h-0.4H517.535z M520.735,37.514v0.8h2.8v-0.8H520.735z
		 M520.785,83.014v0.8h2.75v-0.8H520.785z M521.285,58.165v0.8h2v-0.8H521.285z M523.785,55.014v3.25h0.8v-3.25H523.785z
		 M523.785,58.864v3.25h0.8v-3.25H523.785z M523.985,37.514v0.8h2.75v-0.8H523.985z M523.985,83.014v0.8h2.75v-0.8H523.985z
		 M527.186,37.514v0.8h1.6v-0.8H527.186z M527.186,83.014v0.8h1.6v-0.8H527.186z M528.785,42.065v-3.2h-0.85v3.2H528.785z
		 M527.936,79.065v3.2h0.8v-3.2H527.936z"/>
	<path fill="#FFFFFF" d="M550.235,85.715c-2.3,0-4.468-0.658-6.5-1.975c-2.034-1.316-3.809-3.1-5.325-5.35
		c-1.518-2.25-2.709-4.891-3.575-7.925c-0.867-3.033-1.3-6.283-1.3-9.75c0-3.433,0.433-6.675,1.3-9.725
		c0.866-3.05,2.058-5.7,3.575-7.95c1.517-2.25,3.291-4.033,5.325-5.35c2.032-1.316,4.2-1.975,6.5-1.975
		c2.366,0,4.583,0.684,6.649,2.05c2.066,1.367,3.867,3.25,5.4,5.65c0.133,0.2,0.258,0.4,0.375,0.6c0.116,0.2,0.225,0.4,0.325,0.6
		c0.2,0.467,0.3,0.967,0.3,1.5c0,0.8-0.2,1.5-0.6,2.1c-0.367,0.634-0.859,1.134-1.476,1.5c-0.617,0.367-1.309,0.55-2.075,0.55
		c-1.167,0-2.149-0.4-2.949-1.2c-0.801-0.8-1.2-1.783-1.2-2.95c0-0.8,0.208-1.525,0.625-2.175c0.416-0.65,0.958-1.158,1.625-1.525
		c-0.768-0.8-1.567-1.425-2.4-1.875c-0.833-0.45-1.717-0.675-2.649-0.675c-1.468,0-2.834,0.55-4.101,1.65
		c-1.267,1.1-2.384,2.592-3.35,4.475c-0.968,1.884-1.726,4.092-2.275,6.625c-0.55,2.534-0.825,5.234-0.825,8.1
		c0,2.867,0.275,5.567,0.825,8.1c0.55,2.534,1.308,4.742,2.275,6.625c0.966,1.883,2.083,3.375,3.35,4.475
		c1.267,1.1,2.633,1.65,4.101,1.65c1.199,0,2.341-0.367,3.425-1.1c1.083-0.733,2.058-1.767,2.925-3.1
		c-0.834-0.3-1.518-0.808-2.05-1.525c-0.534-0.716-0.8-1.558-0.8-2.525c0-1.167,0.416-2.167,1.25-3c0.832-0.833,1.85-1.25,3.05-1.25
		c1.166,0,2.166,0.417,3,1.25c0.833,0.833,1.25,1.833,1.25,3c0,0.7-0.117,1.3-0.351,1.8c-0.033,0.034-0.05,0.059-0.05,0.075
		c0,0.017-0.017,0.042-0.05,0.075c-1.5,3.167-3.425,5.7-5.775,7.6C555.66,84.764,553.068,85.715,550.235,85.715z M537.135,61.665
		h0.801v-0.2v-2.85v-0.2l-0.801-0.05v0.2c-0.033,1.034-0.033,2,0,2.9V61.665z M537.135,57.715l0.851,0.05v-0.2
		c0-0.167,0.008-0.35,0.024-0.55c0.017-0.2,0.042-0.416,0.075-0.65v-0.2v-0.2c0.033-0.167,0.05-0.417,0.05-0.75
		c0.033-0.1,0.051-0.267,0.051-0.5l0.05-0.2l-0.851-0.05v0.2c0,0.067-0.008,0.142-0.024,0.225c-0.018,0.084-0.025,0.159-0.025,0.225
		c-0.033,0.167-0.05,0.333-0.05,0.5c0,0.167-0.018,0.333-0.05,0.5c0,0.267-0.009,0.517-0.025,0.75
		c-0.017,0.234-0.024,0.45-0.024,0.65L537.135,57.715z M537.436,65.614l0.85-0.1l-0.05-0.2c-0.067-0.466-0.117-0.941-0.15-1.425
		c-0.033-0.482-0.067-0.958-0.1-1.425v-0.2l-0.851,0.05l0.051,0.2c0,0.467,0.024,0.95,0.074,1.45c0.051,0.5,0.108,0.983,0.176,1.45
		V65.614z M537.436,53.815l0.85,0.1l0.05-0.3c0.066-0.466,0.125-0.917,0.175-1.35c0.051-0.433,0.108-0.883,0.176-1.35l0.05-0.2
		l-0.8-0.15l-0.051,0.2c-0.1,0.467-0.175,0.925-0.225,1.375c-0.05,0.45-0.108,0.909-0.175,1.375L537.436,53.815z M538.235,69.465
		l0.8-0.2l-0.05-0.2c-0.067-0.167-0.117-0.35-0.15-0.55c-0.033-0.2-0.083-0.383-0.149-0.55c0-0.1-0.018-0.183-0.051-0.25
		c0-0.066-0.008-0.125-0.024-0.175c-0.018-0.05-0.025-0.108-0.025-0.175c-0.033-0.167-0.067-0.341-0.1-0.525
		c-0.034-0.183-0.067-0.358-0.101-0.525v-0.2l-0.85,0.15l0.05,0.2c0.033,0.167,0.058,0.342,0.075,0.525
		c0.017,0.184,0.058,0.375,0.125,0.575v0.1l0.05,0.2l0.05,0.2v0.1c0.066,0.167,0.117,0.35,0.15,0.55s0.083,0.384,0.15,0.55
		L538.235,69.465z M538.085,49.915l0.8,0.2l0.051-0.2c0.266-0.967,0.566-1.85,0.899-2.65l0.101-0.15l-0.75-0.35l-0.101,0.2
		c-0.167,0.434-0.333,0.884-0.5,1.35c-0.167,0.467-0.317,0.934-0.45,1.4L538.085,49.915z M539.485,73.215l0.75-0.3l-0.05-0.2
		c-0.334-0.7-0.65-1.583-0.95-2.65l-0.05-0.2l-0.801,0.25l0.051,0.2c0.166,0.534,0.332,1.025,0.5,1.475
		c0.166,0.45,0.332,0.875,0.5,1.275L539.485,73.215z M539.485,46.165l0.7,0.4l0.1-0.2c0.1-0.2,0.208-0.4,0.325-0.6
		c0.116-0.2,0.241-0.4,0.375-0.6c0.133-0.2,0.258-0.4,0.375-0.6c0.116-0.2,0.258-0.383,0.425-0.55l0.1-0.15l-0.649-0.5l-0.101,0.15
		c-0.167,0.167-0.3,0.342-0.399,0.525c-0.101,0.184-0.218,0.358-0.351,0.525l-0.1,0.15l-0.1,0.15c-0.134,0.2-0.25,0.392-0.351,0.575
		c-0.1,0.184-0.2,0.358-0.3,0.525L539.485,46.165z M539.835,74.014c0.233,0.467,0.458,0.917,0.675,1.35
		c0.217,0.434,0.441,0.85,0.676,1.25l0.1,0.15l0.7-0.4l-0.101-0.2c-0.5-0.8-0.934-1.633-1.3-2.5l-0.1-0.15l-0.75,0.3L539.835,74.014
		z M541.635,42.815l0.65,0.55l0.1-0.15c0.333-0.366,0.667-0.708,1-1.025c0.333-0.316,0.684-0.608,1.051-0.875l0.149-0.15l-0.5-0.65
		l-0.149,0.15c-0.4,0.3-0.775,0.617-1.125,0.95c-0.351,0.333-0.692,0.684-1.025,1.05L541.635,42.815z M542.335,76.864l-0.7,0.45
		l0.101,0.15c0.032,0.067,0.066,0.125,0.1,0.175c0.033,0.05,0.066,0.109,0.101,0.175c0.1,0.167,0.199,0.317,0.3,0.45
		c0.1,0.134,0.2,0.268,0.3,0.4c0.133,0.167,0.258,0.325,0.375,0.475c0.116,0.15,0.241,0.309,0.375,0.475
		c0.033,0.067,0.058,0.109,0.075,0.125c0.017,0.017,0.041,0.059,0.075,0.125l0.1,0.15l0.65-0.5l-0.101-0.2
		c-0.067-0.066-0.117-0.133-0.149-0.2l-0.601-0.75l-0.1-0.15l-0.15-0.2v0.05c-0.067-0.133-0.142-0.258-0.225-0.375
		c-0.084-0.117-0.159-0.225-0.226-0.325c-0.033-0.066-0.066-0.125-0.1-0.175c-0.033-0.05-0.067-0.108-0.1-0.175L542.335,76.864z
		 M544.585,79.965l-0.6,0.55l0.1,0.15c0.133,0.133,0.233,0.25,0.3,0.35c0.101,0.134,0.208,0.259,0.325,0.375
		c0.116,0.117,0.226,0.242,0.325,0.375c0.166,0.167,0.342,0.334,0.525,0.5c0.183,0.167,0.391,0.334,0.625,0.5l0.149,0.1l0.5-0.65
		l-0.2-0.1c-0.199-0.167-0.367-0.316-0.5-0.45c-0.133-0.133-0.283-0.283-0.449-0.45v-0.05c-0.134-0.1-0.25-0.208-0.351-0.325
		c-0.1-0.116-0.2-0.241-0.3-0.375c-0.067-0.066-0.117-0.125-0.15-0.175c-0.033-0.05-0.083-0.108-0.149-0.175L544.585,79.965z
		 M544.635,40.165l0.45,0.65l0.15-0.1c0.399-0.267,0.8-0.508,1.2-0.725c0.399-0.216,0.816-0.425,1.25-0.625l0.199-0.05l-0.35-0.75
		l-0.15,0.05c-0.467,0.2-0.917,0.417-1.35,0.65c-0.434,0.234-0.85,0.484-1.25,0.75L544.635,40.165z M546.936,83.264l0.149,0.1
		c0.9,0.467,1.851,0.784,2.851,0.95h0.199l0.101-0.8l-0.2-0.05c-0.8-0.1-1.65-0.383-2.55-0.85l-0.15-0.1L546.936,83.264z
		 M548.186,38.315l0.25,0.8l0.199-0.1c0.233-0.066,0.458-0.125,0.676-0.175c0.216-0.05,0.441-0.108,0.675-0.175
		c0.232-0.066,0.458-0.108,0.675-0.125c0.217-0.017,0.441-0.042,0.675-0.075h0.2l-0.05-0.8h-0.2c-0.2,0-0.408,0.017-0.625,0.05
		c-0.217,0.034-0.442,0.067-0.675,0.1l-0.2,0.05l-0.15,0.05c-0.233,0.067-0.449,0.125-0.649,0.175s-0.4,0.108-0.601,0.175
		L548.186,38.315z M550.835,83.565v0.8h0.2c0.2,0,0.408-0.008,0.625-0.025c0.217-0.017,0.441-0.042,0.675-0.075l0.2-0.05l0.2-0.05
		c0.366-0.1,0.782-0.233,1.25-0.4l0.149-0.1l-0.3-0.75l-0.2,0.1c-0.199,0.067-0.408,0.134-0.625,0.2
		c-0.217,0.067-0.441,0.134-0.675,0.2c-0.399,0.1-0.833,0.15-1.3,0.15H550.835z M552.135,38.465h0.2c0.866,0,1.733,0.2,2.601,0.6
		l0.199,0.1l0.301-0.75l-0.15-0.1c-0.934-0.4-1.917-0.633-2.95-0.7h-0.2V38.465z M554.385,82.665l0.4,0.7l0.15-0.1
		c0.8-0.466,1.582-1.066,2.35-1.8l0.15-0.15l-0.601-0.6l-0.1,0.15c-0.4,0.367-0.775,0.684-1.125,0.95
		c-0.351,0.267-0.709,0.517-1.075,0.75L554.385,82.665z M555.635,39.415l0.2,0.1c0.7,0.434,1.433,1,2.2,1.7l0.15,0.15l0.55-0.6
		l-0.15-0.15c-0.667-0.667-1.45-1.266-2.35-1.8l-0.15-0.1L555.635,39.415z M557.235,46.915l0.8-0.1v-0.2
		c-0.067-0.167-0.075-0.358-0.025-0.575c0.051-0.217,0.108-0.425,0.176-0.625l0.05-0.15l-0.75-0.35l-0.05,0.2
		c-0.234,0.5-0.317,1.034-0.25,1.6L557.235,46.915z M558.785,74.364l-0.15-0.15c-0.333-0.333-0.517-0.683-0.55-1.05v-0.2l-0.85,0.15
		l0.05,0.2c0.033,0.5,0.283,1,0.75,1.5l0.15,0.1L558.785,74.364z M557.285,80.264l0.6,0.6l0.15-0.15
		c0.366-0.4,0.708-0.775,1.025-1.125c0.316-0.35,0.607-0.708,0.875-1.075l0.149-0.15l-0.649-0.5l-0.15,0.15
		c-0.268,0.334-0.55,0.675-0.85,1.025c-0.301,0.35-0.634,0.708-1,1.075L557.285,80.264z M557.335,72.264l0.8,0.3l0.051-0.2
		c0.133-0.3,0.357-0.55,0.675-0.75c0.316-0.2,0.657-0.3,1.024-0.3h0.2h0.2l0.05-0.8h-0.149c-0.067-0.033-0.168-0.05-0.301-0.05
		c-0.566,0-1.074,0.159-1.524,0.475c-0.45,0.317-0.759,0.708-0.925,1.175L557.335,72.264z M560.985,48.514l-0.4-0.7l-0.2,0.1
		c-0.167,0.1-0.367,0.15-0.6,0.15c-0.567,0-1.05-0.233-1.45-0.7l-0.1-0.15l-0.65,0.5l0.15,0.15c0.333,0.434,0.782,0.75,1.35,0.95
		c0.267,0.067,0.483,0.1,0.65,0.1c0.399,0,0.75-0.1,1.05-0.3L560.985,48.514z M559.186,41.215l-0.601,0.55l0.15,0.15
		c0.166,0.167,0.316,0.35,0.45,0.55c0.133,0.2,0.266,0.384,0.399,0.55c0.267,0.334,0.517,0.717,0.75,1.15l0.101,0.2l0.75-0.4
		l-0.101-0.2c-0.134-0.166-0.25-0.341-0.35-0.525c-0.101-0.183-0.218-0.358-0.351-0.525l-0.149-0.2l-0.101-0.15
		c-0.133-0.167-0.258-0.333-0.375-0.5c-0.117-0.167-0.258-0.333-0.425-0.5L559.186,41.215z M560.585,76.014
		c-0.1,0.167-0.208,0.35-0.325,0.55c-0.117,0.2-0.242,0.417-0.375,0.65l-0.1,0.15l0.65,0.45l0.149-0.15
		c0.133-0.2,0.25-0.392,0.351-0.575c0.1-0.183,0.199-0.358,0.3-0.525l0.1-0.2l0.101-0.15c0.1-0.2,0.191-0.4,0.274-0.6
		c0.083-0.2,0.158-0.4,0.226-0.6l0.05-0.2l-0.75-0.25l-0.101,0.2c-0.066,0.2-0.142,0.4-0.225,0.6
		C560.826,75.565,560.718,75.782,560.585,76.014z M560.686,71.465l0.149,0.15c0.167,0.134,0.292,0.284,0.375,0.45
		c0.083,0.167,0.158,0.333,0.226,0.5c0.032,0.133,0.058,0.242,0.074,0.325c0.017,0.084,0.025,0.159,0.025,0.225v0.05
		c-0.033,0.1-0.05,0.2-0.05,0.3s-0.018,0.217-0.05,0.35l-0.051,0.15l0.801,0.2l0.05-0.2c0.032-0.167,0.058-0.308,0.075-0.425
		c0.016-0.117,0.024-0.225,0.024-0.325c0.033-0.167,0.033-0.333,0-0.5c-0.033-0.167-0.067-0.283-0.1-0.35
		c-0.2-0.633-0.5-1.1-0.9-1.4l-0.149-0.15L560.686,71.465z M561.485,44.514l-0.75,0.35l0.1,0.2c0.101,0.2,0.191,0.409,0.275,0.625
		c0.083,0.217,0.157,0.409,0.225,0.575c0.033,0.334-0.067,0.684-0.3,1.05l-0.1,0.2l0.649,0.45l0.101-0.15
		c0.133-0.2,0.258-0.441,0.375-0.725c0.116-0.283,0.141-0.591,0.074-0.925v-0.05c-0.066-0.266-0.142-0.5-0.225-0.7
		c-0.084-0.2-0.192-0.417-0.325-0.65L561.485,44.514z"/>
	<path fill="#FFFFFF" d="M595.334,35.715h1.65h4.199v8.35l-4.199-4.2h-8.25v41.8l4.1,4.05h-16.65l4.2-4.15v-41.7h-8.399l-4.15,4.2
		v-8.35h4.15h1.55H595.334z M569.834,40.065v-3.15h-0.85v3.15H569.834z M573.284,38.364v-0.85h-2.15v0.85H573.284z M578.034,38.364
		v-0.85h-3.9v0.85H578.034z M578.884,38.364h3.9v-0.85h-3.9V38.364z M583.384,84.764v-0.85h-3.25v0.85H583.384z M583.634,37.514
		v0.85h1.75h0.4h1.75v-0.85h-1.75h-0.4H583.634z M584.934,40.264v-1.75h-0.85v1.75H584.934z M584.934,43.965v-3.1h-0.85v3.1H584.934
		z M584.934,47.665v-3.1h-0.85v3.1H584.934z M584.934,49.614v-1.35h-0.85v1.35v0.4v1.4h0.85v-1.4V49.614z M584.934,55.114v-3.15
		h-0.85v3.15H584.934z M584.934,58.815v-3.15h-0.85v3.15H584.934z M584.934,60.764v-1.35h-0.85v1.35v0.4v1.35h0.85v-1.35V60.764z
		 M584.934,66.215v-3.1h-0.85v3.1H584.934z M584.934,69.915v-3.1h-0.85v3.1H584.934z M584.934,71.864v-1.35h-0.85v1.35v0.4v1.4h0.85
		v-1.4V71.864z M584.934,77.364v-3.15h-0.85v3.15H584.934z M584.934,81.065v-3.15h-0.85v3.15H584.934z M584.934,83.415v-1.75h-0.85
		v1.75H584.934z M588.634,84.764v-0.85h-3.3v0.85H588.634z M592.284,38.364v-0.85h-3.9v0.85H592.284z M597.034,38.364v-0.85h-3.9
		v0.85H597.034z M599.084,36.514v3.1h0.85v-3.1H599.084z"/>
</g>
</svg>
