<?xml version="1.0" encoding="utf-8"?>
<!-- Generator: Adobe Illustrator 17.0.2, SVG Export Plug-In . SVG Version: 6.00 Build 0)  -->
<!DOCTYPE svg PUBLIC "-//W3C//DTD SVG 1.1//EN" "http://www.w3.org/Graphics/SVG/1.1/DTD/svg11.dtd">
<svg version="1.1" xmlns="http://www.w3.org/2000/svg" xmlns:xlink="http://www.w3.org/1999/xlink" x="0px" y="0px"
	 width="200.667px" height="223.333px" viewBox="0 0 200.667 223.333" enable-background="new 0 0 200.667 223.333"
	 xml:space="preserve">
<g id="Layer_2">
</g>
<g id="Layer_1">
	<g id="djDTD9_1_">
	</g>
	<circle fill="none" stroke="#FFFFFF" stroke-width="14" stroke-miterlimit="10" cx="101.497" cy="103.84" r="78.571"/>
	<path fill="#FFFFFF" d="M104.367,28.058c0.133,0.058,0.261,0.145,0.401,0.169c1.434,0.243,2.67,0.899,3.748,1.845
		c0.574,0.504,1.139,1.036,1.621,1.626c2.963,3.627,5.467,7.538,7.264,11.882c1.698,4.105,2.582,8.38,2.549,12.815
		c-0.041,5.548-1.094,10.907-3.368,15.992c-1.287,2.88-2.996,5.483-5.205,7.751c-0.963,0.988-1.923,1.983-2.824,3.026
		c-0.679,0.787-1.306,1.627-1.877,2.495c-0.803,1.221-1.287,2.574-1.385,4.046c-0.02,0.305-0.032,0.614-0.007,0.918
		c0.236,2.873,0.48,5.746,0.726,8.618c0.021,0.243,0.073,0.483,0.118,0.773c0.212,0.032,0.414,0.079,0.619,0.091
		c4.192,0.249,8.165,1.297,11.854,3.322c5.12,2.811,8.579,7.034,10.523,12.519c0.73,2.06,1.3,4.176,1.448,6.351
		c0.638,9.374-2.688,16.978-10.31,22.592c-2.335,1.719-4.917,2.992-7.619,4.03c-0.312,0.12-0.622,0.243-0.983,0.385
		c0.016,0.353,0.022,0.685,0.047,1.016c0.304,3.916,0.402,7.84,0.412,11.765c0.005,2.207-0.024,4.416-0.309,6.61
		c-0.071,0.546-0.16,1.094-0.3,1.626c-0.998,3.798-3.413,6.287-7.076,7.611c-0.457,0.165-0.915,0.327-1.373,0.49
		c-1.467,0.13-2.934,0.259-4.401,0.389c-0.204-0.045-0.406-0.111-0.613-0.131c-3.378-0.327-6.447-1.446-9.11-3.582
		c-1.831-1.468-3.211-3.28-4.04-5.488c-1.18-3.142-1.096-6.307-0.094-9.468c0.183-0.578,0.47-1.136,0.789-1.654
		c0.711-1.155,1.698-1.999,2.983-2.483c2.525-0.953,5.644-0.122,7.341,1.973c0.693,0.856,1.098,1.828,1.198,2.934
		c0.112,1.232-0.183,2.372-0.702,3.471c-0.144,0.305-0.319,0.596-0.451,0.905c-0.509,1.191-0.263,2.389,0.671,3.286
		c0.794,0.762,1.76,1.104,2.846,1.085c1.303-0.023,2.015-0.569,2.506-1.782c0.479-1.184,0.702-2.411,0.708-3.678
		c0.015-3.623-0.157-7.235-0.739-10.816c-0.087-0.538-0.288-1.062-0.472-1.58c-0.247-0.697-0.761-1.094-1.492-1.205
		c-0.273-0.041-0.546-0.077-0.82-0.111c-2.191-0.27-4.373-0.59-6.527-1.079c-3.59-0.814-6.974-2.099-10.017-4.227
		c-4.214-2.946-7.669-6.576-10.163-11.09c-1.659-3.004-2.794-6.195-3.392-9.576c-0.069-0.39-0.093-0.8-0.44-1.077
		c-0.114-1.284-0.227-2.567-0.341-3.851c0.246-0.312,0.247-0.681,0.244-1.051c-0.027-3.271,0.425-6.48,1.31-9.623
		c2.084-7.403,6.048-13.625,11.82-18.698c1.036-0.911,2.102-1.788,3.126-2.713c1.572-1.419,3.212-2.751,4.92-4.003
		c0.543-0.398,1.055-0.84,1.567-1.278c1.158-0.99,1.513-2.214,1.204-3.716c-0.359-1.746-0.824-3.458-1.391-5.143
		c-0.735-2.182-1.375-4.387-1.755-6.66c-0.563-3.367-0.759-6.757-0.607-10.17c0.171-3.845,0.771-7.618,1.837-11.314
		c1.05-3.64,2.488-7.115,4.522-10.325c0.988-1.559,2.103-3.019,3.471-4.271c1.051-0.962,2.217-1.737,3.583-2.185
		c0.139-0.046,0.261-0.143,0.391-0.216C103.144,28.166,103.756,28.112,104.367,28.058z M95.969,91.98
		c-0.28,0.13-0.446,0.198-0.603,0.282c-2.386,1.28-4.639,2.758-6.699,4.519c-3.314,2.832-5.941,6.183-7.682,10.202
		c-1.371,3.164-2.074,6.475-2.166,9.913c-0.047,1.751,0.025,3.504,0.448,5.213c0.644,2.599,1.555,5.101,2.859,7.449
		c1.401,2.523,3.18,4.732,5.465,6.511c3.192,2.485,6.832,3.808,10.851,4.103c0.63,0.046,1.274,0.127,1.932-0.012
		c0.122-0.393,0.033-0.757,0.002-1.115c-0.789-8.955-1.581-17.909-2.373-26.864c-0.019-0.214-0.025-0.43-0.063-0.641
		c-0.03-0.167-0.1-0.327-0.15-0.483c-0.682,0.012-1.256,0.24-1.827,0.455c-2.328,0.875-4.09,2.434-5.407,4.52
		c-1.162,1.841-1.862,3.858-2.264,5.987c-0.055,0.294-0.113,0.587-0.191,0.992c-0.165-0.229-0.283-0.362-0.366-0.514
		c-0.668-1.214-1.188-2.492-1.529-3.834c-0.755-2.968-0.502-5.84,0.877-8.592c0.692-1.383,1.601-2.613,2.665-3.73
		c1.861-1.952,4.032-3.483,6.415-4.726c0.268-0.14,0.534-0.283,0.846-0.449C96.718,98.127,96.388,95.117,95.969,91.98z
		 M101.72,75.82c0.231-0.146,0.363-0.221,0.487-0.31c3.544-2.542,6.072-5.851,7.499-9.981c1.543-4.465,1.567-9.023,0.756-13.619
		c-0.39-2.208-1.026-4.353-1.807-6.453c-0.684-1.839-1.405-3.665-2.456-5.333c-0.374-0.593-0.808-1.154-1.265-1.687
		c-0.336-0.392-0.741-0.731-1.317-0.857c-0.166,0.171-0.361,0.326-0.498,0.522c-0.352,0.501-0.706,1.005-1.011,1.535
		c-3.149,5.469-4.919,11.326-4.996,17.668c-0.034,2.773,0.237,5.512,0.83,8.215c0.726,3.306,1.878,6.469,3.358,9.512
		C101.418,75.274,101.553,75.507,101.72,75.82z M107.437,109.995c-0.018,0.215-0.047,0.364-0.04,0.511
		c0.126,2.637,2.408,27.633,2.587,28.375c0.058,0.01,0.121,0.039,0.173,0.025c0.236-0.065,0.474-0.129,0.703-0.216
		c2.111-0.799,4.046-1.897,5.748-3.389c2.228-1.953,3.767-4.343,4.508-7.218c0.621-2.41,0.652-4.849,0.232-7.295
		c-0.083-0.48-0.186-0.969-0.365-1.42c-2.162-5.443-6.137-8.564-11.967-9.278C108.504,110.028,107.985,110.027,107.437,109.995z"/>
</g>
</svg>
